<?xml version="1.0" encoding="utf-8"?>
<!-- Generator: Adobe Illustrator 16.0.0, SVG Export Plug-In . SVG Version: 6.00 Build 0)  -->
<!DOCTYPE svg PUBLIC "-//W3C//DTD SVG 1.1//EN" "http://www.w3.org/Graphics/SVG/1.1/DTD/svg11.dtd">
<svg version="1.1" id="Layer_1" xmlns="http://www.w3.org/2000/svg" xmlns:xlink="http://www.w3.org/1999/xlink" x="0px" y="0px"
	 width="179.729px" height="205.314px" viewBox="0 0 179.729 205.314" enable-background="new 0 0 179.729 205.314"
	 xml:space="preserve">
<g>
	<path fill="#FFFFFF" d="M11.664,7.252V7.061c0-0.141,0.027-0.242,0.082-0.301s0.123-0.089,0.205-0.089
		c0.086,0,0.157,0.03,0.212,0.089s0.082,0.16,0.082,0.301v1.299C12.241,8.5,12.212,8.601,12.16,8.66s-0.122,0.089-0.208,0.089
		c-0.078,0-0.143-0.026-0.195-0.079s-0.083-0.14-0.092-0.263c-0.027-0.324-0.24-0.631-0.639-0.923s-0.936-0.438-1.61-0.438
		c-0.852,0-1.5,0.267-1.941,0.8S6.811,8.991,6.811,9.679c0,0.743,0.244,1.356,0.731,1.839s1.119,0.725,1.894,0.725
		c0.447,0,0.901-0.082,1.364-0.246s0.881-0.428,1.254-0.793c0.096-0.091,0.18-0.137,0.253-0.137c0.078,0,0.143,0.026,0.195,0.079
		s0.079,0.117,0.079,0.195c0,0.196-0.23,0.444-0.69,0.745c-0.743,0.488-1.57,0.731-2.481,0.731c-0.925,0-1.685-0.295-2.28-0.885
		s-0.892-1.339-0.892-2.246c0-0.925,0.304-1.693,0.913-2.304s1.375-0.916,2.3-0.916C10.329,6.466,11.067,6.728,11.664,7.252z"/>
	<path fill="#FFFFFF" d="M17.96,4.012v8.005h2.256c0.141,0,0.242,0.026,0.301,0.079s0.089,0.122,0.089,0.208
		c0,0.082-0.03,0.15-0.089,0.205s-0.16,0.082-0.301,0.082H15.13c-0.137,0-0.235-0.027-0.294-0.082s-0.089-0.123-0.089-0.205
		c0-0.086,0.03-0.156,0.089-0.208s0.157-0.079,0.294-0.079h2.256V4.593h-1.654c-0.137,0-0.236-0.027-0.297-0.082
		s-0.092-0.125-0.092-0.212c0-0.082,0.03-0.15,0.089-0.205s0.16-0.082,0.301-0.082H17.96z"/>
	<path fill="#FFFFFF" d="M27.722,12.591v-0.827c-0.834,0.702-1.725,1.053-2.673,1.053c-0.688,0-1.226-0.174-1.613-0.523
		s-0.581-0.776-0.581-1.282c0-0.556,0.255-1.042,0.766-1.456s1.255-0.622,2.235-0.622c0.264,0,0.551,0.017,0.861,0.051
		s0.645,0.088,1.005,0.161v-0.93c0-0.314-0.146-0.588-0.438-0.82s-0.729-0.349-1.313-0.349c-0.447,0-1.073,0.13-1.88,0.39
		c-0.146,0.045-0.239,0.068-0.28,0.068c-0.073,0-0.136-0.027-0.188-0.082S23.545,7.3,23.545,7.218c0-0.078,0.023-0.139,0.068-0.185
		c0.064-0.068,0.321-0.162,0.772-0.28c0.711-0.191,1.249-0.287,1.613-0.287c0.725,0,1.29,0.179,1.695,0.537s0.608,0.762,0.608,1.213
		v3.801h0.766c0.141,0,0.242,0.026,0.301,0.079s0.089,0.122,0.089,0.208c0,0.082-0.03,0.15-0.089,0.205s-0.16,0.082-0.301,0.082
		H27.722z M27.722,9.733c-0.269-0.078-0.554-0.134-0.854-0.171s-0.618-0.055-0.95-0.055c-0.834,0-1.486,0.18-1.955,0.54
		c-0.355,0.269-0.533,0.59-0.533,0.964c0,0.346,0.136,0.638,0.407,0.875s0.667,0.355,1.186,0.355c0.497,0,0.958-0.099,1.384-0.297
		s0.865-0.514,1.316-0.947V9.733z"/>
	<path fill="#FFFFFF" d="M36.369,7.047c0-0.132,0.027-0.228,0.082-0.287s0.123-0.089,0.205-0.089c0.086,0,0.157,0.03,0.212,0.089
		s0.082,0.16,0.082,0.301v0.984c0,0.137-0.027,0.235-0.082,0.294s-0.125,0.089-0.212,0.089c-0.078,0-0.143-0.025-0.195-0.075
		s-0.083-0.132-0.092-0.246c-0.027-0.273-0.168-0.499-0.424-0.677c-0.374-0.255-0.868-0.383-1.483-0.383
		c-0.643,0-1.142,0.13-1.497,0.39c-0.269,0.196-0.403,0.415-0.403,0.656c0,0.273,0.16,0.501,0.479,0.684
		c0.219,0.127,0.633,0.226,1.244,0.294c0.797,0.086,1.351,0.185,1.661,0.294c0.442,0.16,0.771,0.38,0.988,0.663
		s0.325,0.588,0.325,0.916c0,0.488-0.235,0.922-0.704,1.302s-1.158,0.571-2.064,0.571s-1.65-0.23-2.229-0.69
		c0,0.155-0.009,0.255-0.027,0.301s-0.051,0.084-0.099,0.116s-0.102,0.048-0.161,0.048c-0.082,0-0.15-0.03-0.205-0.089
		s-0.082-0.157-0.082-0.294v-1.183c0-0.137,0.026-0.235,0.079-0.294s0.122-0.089,0.208-0.089c0.082,0,0.151,0.028,0.208,0.085
		s0.085,0.133,0.085,0.229c0,0.209,0.052,0.385,0.157,0.526c0.16,0.219,0.414,0.4,0.762,0.543s0.776,0.215,1.282,0.215
		c0.748,0,1.303-0.139,1.668-0.417s0.547-0.572,0.547-0.882c0-0.355-0.185-0.64-0.554-0.854c-0.374-0.214-0.917-0.358-1.63-0.431
		s-1.225-0.168-1.535-0.287s-0.551-0.296-0.725-0.533s-0.26-0.492-0.26-0.766c0-0.492,0.242-0.883,0.725-1.172
		s1.06-0.434,1.729-0.434C35.228,6.466,35.873,6.66,36.369,7.047z"/>
	<path fill="#FFFFFF" d="M44.771,7.047c0-0.132,0.027-0.228,0.082-0.287s0.123-0.089,0.205-0.089c0.086,0,0.157,0.03,0.212,0.089
		s0.082,0.16,0.082,0.301v0.984c0,0.137-0.027,0.235-0.082,0.294s-0.125,0.089-0.212,0.089c-0.078,0-0.143-0.025-0.195-0.075
		S44.78,8.22,44.771,8.106c-0.027-0.273-0.168-0.499-0.424-0.677c-0.374-0.255-0.868-0.383-1.483-0.383
		c-0.643,0-1.142,0.13-1.497,0.39c-0.269,0.196-0.403,0.415-0.403,0.656c0,0.273,0.16,0.501,0.479,0.684
		c0.219,0.127,0.633,0.226,1.244,0.294c0.797,0.086,1.351,0.185,1.661,0.294c0.442,0.16,0.771,0.38,0.988,0.663
		s0.325,0.588,0.325,0.916c0,0.488-0.235,0.922-0.704,1.302s-1.158,0.571-2.064,0.571s-1.65-0.23-2.229-0.69
		c0,0.155-0.009,0.255-0.027,0.301s-0.051,0.084-0.099,0.116s-0.102,0.048-0.161,0.048c-0.082,0-0.15-0.03-0.205-0.089
		s-0.082-0.157-0.082-0.294v-1.183c0-0.137,0.026-0.235,0.079-0.294s0.122-0.089,0.208-0.089c0.082,0,0.151,0.028,0.208,0.085
		s0.085,0.133,0.085,0.229c0,0.209,0.052,0.385,0.157,0.526c0.16,0.219,0.414,0.4,0.762,0.543s0.776,0.215,1.282,0.215
		c0.748,0,1.303-0.139,1.668-0.417s0.547-0.572,0.547-0.882c0-0.355-0.185-0.64-0.554-0.854c-0.374-0.214-0.917-0.358-1.63-0.431
		s-1.225-0.168-1.535-0.287s-0.551-0.296-0.725-0.533s-0.26-0.492-0.26-0.766c0-0.492,0.242-0.883,0.725-1.172
		s1.06-0.434,1.729-0.434C43.629,6.466,44.274,6.66,44.771,7.047z"/>
	<path fill="#FFFFFF" d="M61.621,8.722h-3.808v3.295h0.772c0.137,0,0.235,0.026,0.294,0.079s0.089,0.122,0.089,0.208
		c0,0.082-0.03,0.15-0.089,0.205s-0.157,0.082-0.294,0.082H56.59c-0.137,0-0.235-0.027-0.294-0.082s-0.089-0.123-0.089-0.205
		c0-0.086,0.03-0.156,0.089-0.208s0.157-0.079,0.294-0.079h0.649v-6.85h-0.355c-0.141,0-0.242-0.026-0.301-0.079
		s-0.089-0.122-0.089-0.208s0.03-0.156,0.089-0.208s0.16-0.079,0.301-0.079h1.702c0.137,0,0.235,0.026,0.294,0.079
		s0.089,0.122,0.089,0.208s-0.03,0.156-0.089,0.208s-0.157,0.079-0.294,0.079h-0.772v2.98h3.808v-2.98h-0.766
		c-0.137,0-0.235-0.026-0.294-0.079s-0.089-0.122-0.089-0.208s0.028-0.156,0.085-0.208s0.156-0.079,0.297-0.079h1.702
		c0.141,0,0.242,0.026,0.301,0.079s0.089,0.122,0.089,0.208s-0.03,0.156-0.089,0.208s-0.16,0.079-0.301,0.079h-0.355v6.85h0.649
		c0.137,0,0.235,0.026,0.294,0.079s0.089,0.122,0.089,0.208c0,0.082-0.03,0.15-0.089,0.205s-0.157,0.082-0.294,0.082h-1.996
		c-0.137,0-0.235-0.027-0.294-0.082s-0.089-0.123-0.089-0.205c0-0.086,0.028-0.156,0.085-0.208s0.156-0.079,0.297-0.079h0.766V8.722
		z"/>
	<path fill="#FFFFFF" d="M70.043,12.591V11.75c-0.784,0.711-1.631,1.066-2.543,1.066c-0.561,0-0.987-0.153-1.278-0.458
		c-0.378-0.401-0.567-0.868-0.567-1.401V7.252h-0.772c-0.137,0-0.235-0.027-0.294-0.082s-0.089-0.125-0.089-0.212
		c0-0.082,0.03-0.15,0.089-0.205s0.157-0.082,0.294-0.082h1.347v4.286c0,0.374,0.119,0.681,0.355,0.923s0.533,0.362,0.889,0.362
		c0.934,0,1.791-0.428,2.57-1.285V7.252h-1.06c-0.137,0-0.235-0.027-0.294-0.082s-0.089-0.125-0.089-0.212
		c0-0.082,0.03-0.15,0.089-0.205s0.157-0.082,0.294-0.082h1.634v5.346h0.485c0.137,0,0.235,0.026,0.294,0.079
		s0.089,0.122,0.089,0.208c0,0.082-0.03,0.15-0.089,0.205s-0.157,0.082-0.294,0.082H70.043z"/>
	<path fill="#FFFFFF" d="M73.864,6.671v0.581c0.488-0.524,0.978-0.786,1.47-0.786c0.296,0,0.556,0.079,0.779,0.236
		s0.41,0.396,0.561,0.714c0.255-0.319,0.514-0.557,0.776-0.714s0.525-0.236,0.79-0.236c0.415,0,0.745,0.134,0.991,0.403
		c0.324,0.346,0.485,0.725,0.485,1.135v4.013h0.485c0.137,0,0.235,0.026,0.294,0.079s0.089,0.122,0.089,0.208
		c0,0.082-0.03,0.15-0.089,0.205s-0.157,0.082-0.294,0.082h-1.06V8.059c0-0.292-0.089-0.533-0.267-0.725s-0.383-0.287-0.615-0.287
		c-0.209,0-0.431,0.079-0.663,0.236S77.1,7.749,76.804,8.209v3.808h0.479c0.137,0,0.235,0.026,0.294,0.079s0.089,0.122,0.089,0.208
		c0,0.082-0.03,0.15-0.089,0.205s-0.157,0.082-0.294,0.082h-1.06V8.1c0-0.305-0.09-0.557-0.27-0.755s-0.382-0.297-0.605-0.297
		c-0.205,0-0.408,0.066-0.608,0.198c-0.278,0.187-0.57,0.508-0.875,0.964v3.808h0.485c0.137,0,0.235,0.026,0.294,0.079
		s0.089,0.122,0.089,0.208c0,0.082-0.03,0.15-0.089,0.205s-0.157,0.082-0.294,0.082h-1.545c-0.137,0-0.235-0.027-0.294-0.082
		s-0.089-0.123-0.089-0.205c0-0.086,0.03-0.156,0.089-0.208s0.157-0.079,0.294-0.079h0.485V7.252h-0.485
		c-0.137,0-0.235-0.027-0.294-0.082s-0.089-0.125-0.089-0.212c0-0.082,0.03-0.15,0.089-0.205s0.157-0.082,0.294-0.082H73.864z"/>
	<path fill="#FFFFFF" d="M86.531,12.591v-0.827c-0.834,0.702-1.725,1.053-2.673,1.053c-0.688,0-1.226-0.174-1.613-0.523
		s-0.581-0.776-0.581-1.282c0-0.556,0.255-1.042,0.766-1.456s1.255-0.622,2.235-0.622c0.264,0,0.551,0.017,0.861,0.051
		s0.645,0.088,1.005,0.161v-0.93c0-0.314-0.146-0.588-0.438-0.82s-0.729-0.349-1.313-0.349c-0.447,0-1.073,0.13-1.88,0.39
		c-0.146,0.045-0.239,0.068-0.28,0.068c-0.073,0-0.136-0.027-0.188-0.082S82.354,7.3,82.354,7.218c0-0.078,0.023-0.139,0.068-0.185
		c0.064-0.068,0.321-0.162,0.772-0.28c0.711-0.191,1.249-0.287,1.613-0.287c0.725,0,1.29,0.179,1.695,0.537s0.608,0.762,0.608,1.213
		v3.801h0.766c0.141,0,0.242,0.026,0.301,0.079s0.089,0.122,0.089,0.208c0,0.082-0.03,0.15-0.089,0.205s-0.16,0.082-0.301,0.082
		H86.531z M86.531,9.733c-0.269-0.078-0.554-0.134-0.854-0.171s-0.618-0.055-0.95-0.055c-0.834,0-1.486,0.18-1.955,0.54
		c-0.355,0.269-0.533,0.59-0.533,0.964c0,0.346,0.136,0.638,0.407,0.875s0.667,0.355,1.186,0.355c0.497,0,0.958-0.099,1.384-0.297
		s0.865-0.514,1.316-0.947V9.733z"/>
	<path fill="#FFFFFF" d="M91.426,6.671v0.868c0.401-0.406,0.763-0.686,1.087-0.841s0.688-0.232,1.094-0.232
		c0.438,0,0.836,0.093,1.196,0.28c0.255,0.137,0.486,0.363,0.694,0.68s0.311,0.642,0.311,0.974v3.616h0.485
		c0.137,0,0.235,0.026,0.294,0.079s0.089,0.122,0.089,0.208c0,0.082-0.03,0.15-0.089,0.205s-0.157,0.082-0.294,0.082h-1.538
		c-0.141,0-0.242-0.027-0.301-0.082s-0.089-0.123-0.089-0.205c0-0.086,0.03-0.156,0.089-0.208s0.16-0.079,0.301-0.079h0.479V8.496
		c0-0.406-0.148-0.749-0.444-1.029s-0.693-0.42-1.189-0.42c-0.378,0-0.707,0.076-0.984,0.229s-0.674,0.532-1.189,1.138v3.603h0.649
		c0.137,0,0.235,0.026,0.294,0.079s0.089,0.122,0.089,0.208c0,0.082-0.03,0.15-0.089,0.205s-0.157,0.082-0.294,0.082h-1.873
		c-0.137,0-0.235-0.027-0.294-0.082s-0.089-0.123-0.089-0.205c0-0.086,0.03-0.156,0.089-0.208s0.157-0.079,0.294-0.079h0.649V7.252
		h-0.485c-0.137,0-0.235-0.027-0.294-0.082s-0.089-0.125-0.089-0.212c0-0.082,0.03-0.15,0.089-0.205s0.157-0.082,0.294-0.082H91.426
		z"/>
	<path fill="#FFFFFF" d="M109.753,9.187c0.228,0.173,0.383,0.337,0.465,0.492c0.105,0.205,0.157,0.449,0.157,0.731v2.454
		c0,0.26,0.075,0.473,0.226,0.639s0.337,0.261,0.561,0.284c0.141,0.014,0.235,0.041,0.28,0.082c0.059,0.055,0.089,0.123,0.089,0.205
		c0,0.086-0.03,0.156-0.089,0.208s-0.146,0.079-0.26,0.079c-0.36,0-0.661-0.114-0.902-0.342c-0.324-0.314-0.485-0.697-0.485-1.148
		V10.41c0-0.25-0.075-0.461-0.226-0.632s-0.342-0.266-0.574-0.284c-0.127-0.014-0.216-0.045-0.267-0.096s-0.075-0.121-0.075-0.212
		c0-0.086,0.025-0.155,0.075-0.205s0.139-0.082,0.267-0.096c0.237-0.018,0.43-0.113,0.578-0.284s0.222-0.382,0.222-0.632V5.509
		c0-0.428,0.137-0.785,0.41-1.07s0.602-0.427,0.984-0.427c0.109,0,0.194,0.027,0.253,0.082s0.089,0.123,0.089,0.205
		s-0.03,0.15-0.089,0.205c-0.041,0.045-0.134,0.075-0.28,0.089c-0.228,0.023-0.416,0.119-0.564,0.287s-0.222,0.378-0.222,0.629V7.97
		c0,0.287-0.045,0.519-0.137,0.694S109.985,9.013,109.753,9.187z"/>
	<path fill="#FFFFFF" d="M43.104,23.471v1.046c0.342-0.415,0.708-0.727,1.101-0.937s0.854-0.314,1.388-0.314
		c0.565,0,1.087,0.132,1.565,0.396s0.849,0.632,1.111,1.104s0.393,0.967,0.393,1.487c0,0.825-0.295,1.53-0.885,2.116
		s-1.316,0.878-2.177,0.878c-1.025,0-1.857-0.417-2.495-1.251v3.459h1.395c0.137,0,0.235,0.026,0.294,0.079s0.089,0.122,0.089,0.208
		c0,0.082-0.03,0.15-0.089,0.205s-0.157,0.082-0.294,0.082h-2.741c-0.137,0-0.235-0.026-0.294-0.079s-0.089-0.122-0.089-0.208
		s0.03-0.156,0.089-0.208s0.157-0.079,0.294-0.079h0.772v-7.403h-0.772c-0.137,0-0.235-0.027-0.294-0.082s-0.089-0.125-0.089-0.212
		c0-0.082,0.03-0.15,0.089-0.205s0.157-0.082,0.294-0.082H43.104z M48.081,26.253c0-0.661-0.24-1.227-0.721-1.699
		s-1.067-0.708-1.76-0.708c-0.697,0-1.288,0.237-1.771,0.711s-0.725,1.039-0.725,1.695c0,0.661,0.242,1.228,0.725,1.702
		s1.073,0.711,1.771,0.711c0.688,0,1.274-0.236,1.757-0.708S48.081,26.918,48.081,26.253z"/>
	<path fill="#FFFFFF" d="M55.635,29.391V28.55c-0.784,0.711-1.631,1.066-2.543,1.066c-0.561,0-0.987-0.153-1.278-0.458
		c-0.378-0.401-0.567-0.868-0.567-1.401v-3.705h-0.772c-0.137,0-0.235-0.027-0.294-0.082s-0.089-0.125-0.089-0.212
		c0-0.082,0.03-0.15,0.089-0.205s0.157-0.082,0.294-0.082h1.347v4.286c0,0.374,0.119,0.681,0.355,0.923s0.533,0.362,0.889,0.362
		c0.934,0,1.791-0.428,2.57-1.285v-3.705h-1.06c-0.137,0-0.235-0.027-0.294-0.082s-0.089-0.125-0.089-0.212
		c0-0.082,0.03-0.15,0.089-0.205s0.157-0.082,0.294-0.082h1.634v5.346h0.485c0.137,0,0.235,0.026,0.294,0.079
		s0.089,0.122,0.089,0.208c0,0.082-0.03,0.15-0.089,0.205s-0.157,0.082-0.294,0.082H55.635z"/>
	<path fill="#FFFFFF" d="M59.907,20.812v3.808c0.693-0.902,1.529-1.354,2.509-1.354c0.838,0,1.556,0.304,2.153,0.913
		s0.896,1.354,0.896,2.239c0,0.893-0.302,1.65-0.906,2.27s-1.318,0.93-2.143,0.93c-1.002,0-1.839-0.451-2.509-1.354v1.128h-1.347
		c-0.137,0-0.235-0.027-0.294-0.082s-0.089-0.123-0.089-0.205c0-0.086,0.03-0.156,0.089-0.208s0.157-0.079,0.294-0.079h0.772v-7.424
		h-0.772c-0.137,0-0.235-0.027-0.294-0.082s-0.089-0.125-0.089-0.212c0-0.082,0.03-0.15,0.089-0.205s0.157-0.082,0.294-0.082H59.907
		z M64.891,26.444c0-0.725-0.249-1.339-0.745-1.842s-1.078-0.755-1.743-0.755s-1.247,0.252-1.743,0.755s-0.745,1.118-0.745,1.842
		s0.249,1.339,0.745,1.842s1.078,0.755,1.743,0.755s1.247-0.252,1.743-0.755S64.891,27.169,64.891,26.444z"/>
	<path fill="#FFFFFF" d="M70.763,20.812v8.005h2.256c0.141,0,0.242,0.026,0.301,0.079s0.089,0.122,0.089,0.208
		c0,0.082-0.03,0.15-0.089,0.205s-0.16,0.082-0.301,0.082h-5.086c-0.137,0-0.235-0.027-0.294-0.082s-0.089-0.123-0.089-0.205
		c0-0.086,0.03-0.156,0.089-0.208s0.157-0.079,0.294-0.079h2.256v-7.424h-1.654c-0.137,0-0.236-0.027-0.297-0.082
		s-0.092-0.125-0.092-0.212c0-0.082,0.03-0.15,0.089-0.205s0.16-0.082,0.301-0.082H70.763z"/>
	<path fill="#FFFFFF" d="M79.178,23.471v5.346h2.256c0.141,0,0.242,0.026,0.301,0.079s0.089,0.122,0.089,0.208
		c0,0.082-0.03,0.15-0.089,0.205s-0.16,0.082-0.301,0.082h-5.086c-0.137,0-0.235-0.027-0.294-0.082s-0.089-0.123-0.089-0.205
		c0-0.086,0.03-0.156,0.089-0.208s0.157-0.079,0.294-0.079h2.256v-4.765h-1.675c-0.137,0-0.236-0.027-0.297-0.082
		s-0.092-0.123-0.092-0.205c0-0.086,0.03-0.157,0.089-0.212s0.16-0.082,0.301-0.082H79.178z M79.157,20.524v1.483H78.31v-1.483
		H79.157z"/>
	<path fill="#FFFFFF" d="M89.671,24.052V23.86c0-0.141,0.027-0.242,0.082-0.301s0.123-0.089,0.205-0.089
		c0.086,0,0.157,0.03,0.212,0.089s0.082,0.16,0.082,0.301v1.299c-0.004,0.141-0.033,0.242-0.085,0.301s-0.122,0.089-0.208,0.089
		c-0.078,0-0.143-0.026-0.195-0.079s-0.083-0.14-0.092-0.263c-0.027-0.324-0.24-0.631-0.639-0.923s-0.936-0.438-1.61-0.438
		c-0.852,0-1.5,0.267-1.941,0.8s-0.663,1.144-0.663,1.832c0,0.743,0.244,1.356,0.731,1.839s1.119,0.725,1.894,0.725
		c0.447,0,0.901-0.082,1.364-0.246s0.881-0.428,1.254-0.793c0.096-0.091,0.18-0.137,0.253-0.137c0.078,0,0.143,0.026,0.195,0.079
		s0.079,0.117,0.079,0.195c0,0.196-0.23,0.444-0.69,0.745c-0.743,0.488-1.57,0.731-2.481,0.731c-0.925,0-1.685-0.295-2.28-0.885
		s-0.892-1.339-0.892-2.246c0-0.925,0.304-1.693,0.913-2.304s1.375-0.916,2.3-0.916C88.335,23.266,89.074,23.528,89.671,24.052z"/>
	<path fill="#FFFFFF" d="M95.557,23.471h0.246c0.255,0,0.474,0.091,0.656,0.273s0.273,0.399,0.273,0.649
		c0,0.269-0.092,0.492-0.277,0.67s-0.402,0.267-0.653,0.267h-0.246c-0.255,0-0.474-0.091-0.656-0.273s-0.273-0.399-0.273-0.649
		c0-0.269,0.092-0.492,0.277-0.67S95.306,23.471,95.557,23.471z M95.557,27.743h0.246c0.255,0,0.474,0.09,0.656,0.27
		s0.273,0.397,0.273,0.653c0,0.264-0.092,0.485-0.277,0.663s-0.402,0.267-0.653,0.267h-0.246c-0.255,0-0.474-0.09-0.656-0.27
		s-0.273-0.397-0.273-0.653c0-0.264,0.092-0.485,0.277-0.663S95.306,27.743,95.557,27.743z"/>
	<path fill="#FFFFFF" d="M45.771,46.19H44.8l-2.358-5.339h-0.588c-0.137,0-0.235-0.027-0.294-0.082s-0.089-0.125-0.089-0.212
		c0-0.082,0.03-0.15,0.089-0.205s0.157-0.082,0.294-0.082h2.153c0.137,0,0.235,0.027,0.294,0.082s0.089,0.125,0.089,0.212
		c0,0.082-0.03,0.15-0.089,0.205s-0.157,0.082-0.294,0.082h-0.95l2.105,4.765h0.253l2.064-4.765h-0.957
		c-0.137,0-0.235-0.027-0.294-0.082s-0.089-0.125-0.089-0.212c0-0.082,0.03-0.15,0.089-0.205s0.157-0.082,0.294-0.082h2.16
		c0.141,0,0.24,0.027,0.297,0.082s0.085,0.125,0.085,0.212c0,0.082-0.028,0.15-0.085,0.205s-0.156,0.082-0.297,0.082h-0.581
		L45.771,46.19z"/>
	<path fill="#FFFFFF" d="M56.879,43.244c0,0.875-0.313,1.623-0.94,2.242s-1.382,0.93-2.266,0.93c-0.893,0-1.652-0.311-2.276-0.933
		s-0.937-1.368-0.937-2.239c0-0.875,0.312-1.624,0.937-2.246s1.383-0.933,2.276-0.933c0.884,0,1.64,0.31,2.266,0.93
		S56.879,42.365,56.879,43.244z M56.298,43.244c0-0.72-0.256-1.333-0.769-1.839s-1.134-0.759-1.863-0.759s-1.35,0.254-1.863,0.762
		s-0.769,1.12-0.769,1.835c0,0.711,0.256,1.322,0.769,1.832s1.134,0.766,1.863,0.766s1.35-0.254,1.863-0.762
		S56.298,43.959,56.298,43.244z"/>
	<path fill="#FFFFFF" d="M62.375,40.271v5.346h2.256c0.141,0,0.242,0.026,0.301,0.079s0.089,0.122,0.089,0.208
		c0,0.082-0.03,0.15-0.089,0.205s-0.16,0.082-0.301,0.082h-5.086c-0.137,0-0.235-0.027-0.294-0.082s-0.089-0.123-0.089-0.205
		c0-0.086,0.03-0.156,0.089-0.208s0.157-0.079,0.294-0.079h2.256v-4.765h-1.675c-0.137,0-0.236-0.027-0.297-0.082
		s-0.092-0.123-0.092-0.205c0-0.086,0.03-0.157,0.089-0.212s0.16-0.082,0.301-0.082H62.375z M62.354,37.324v1.483h-0.848v-1.483
		H62.354z"/>
	<path fill="#FFFFFF" d="M73.285,37.611v8.005h0.766c0.141,0,0.242,0.026,0.301,0.079s0.089,0.122,0.089,0.208
		c0,0.082-0.03,0.15-0.089,0.205s-0.16,0.082-0.301,0.082h-1.347v-1.142c-0.666,0.912-1.511,1.367-2.536,1.367
		c-0.52,0-1.018-0.138-1.494-0.414s-0.852-0.669-1.128-1.179s-0.414-1.037-0.414-1.579c0-0.547,0.138-1.074,0.414-1.583
		s0.652-0.901,1.128-1.179s0.977-0.417,1.5-0.417c1.002,0,1.846,0.456,2.529,1.367v-3.24h-0.766c-0.141,0-0.242-0.027-0.301-0.082
		s-0.089-0.125-0.089-0.212c0-0.082,0.03-0.15,0.089-0.205s0.16-0.082,0.301-0.082H73.285z M72.704,43.244
		c0-0.729-0.246-1.344-0.738-1.846s-1.078-0.752-1.757-0.752c-0.684,0-1.271,0.25-1.764,0.752s-0.738,1.117-0.738,1.846
		c0,0.725,0.246,1.339,0.738,1.842s1.08,0.755,1.764,0.755c0.679,0,1.265-0.252,1.757-0.755S72.704,43.969,72.704,43.244z"/>
	<path fill="#FFFFFF" d="M85.405,42.328v3.288h4.416v-1.695c0-0.137,0.026-0.235,0.079-0.294s0.122-0.089,0.208-0.089
		s0.156,0.03,0.208,0.089s0.079,0.157,0.079,0.294v2.27h-6.337c-0.137,0-0.235-0.027-0.294-0.082s-0.089-0.123-0.089-0.205
		c0-0.086,0.03-0.156,0.089-0.208s0.157-0.079,0.294-0.079h0.772v-6.85h-0.772c-0.137,0-0.235-0.026-0.294-0.079
		s-0.089-0.122-0.089-0.208s0.03-0.156,0.089-0.208s0.157-0.079,0.294-0.079h6.036v1.976c0,0.137-0.026,0.235-0.079,0.294
		s-0.122,0.089-0.208,0.089s-0.156-0.03-0.208-0.089s-0.079-0.157-0.079-0.294v-1.401h-4.115v2.987h2.058v-0.649
		c0-0.137,0.027-0.235,0.082-0.294s0.125-0.089,0.212-0.089c0.082,0,0.15,0.03,0.205,0.089s0.082,0.157,0.082,0.294v1.873
		c0,0.137-0.027,0.235-0.082,0.294s-0.123,0.089-0.205,0.089c-0.086,0-0.157-0.03-0.212-0.089s-0.082-0.157-0.082-0.294v-0.649
		H85.405z"/>
	<path fill="#FFFFFF" d="M97.327,46.19v-0.827c-0.834,0.702-1.725,1.053-2.673,1.053c-0.688,0-1.226-0.174-1.613-0.523
		s-0.581-0.776-0.581-1.282c0-0.556,0.255-1.042,0.766-1.456s1.255-0.622,2.235-0.622c0.264,0,0.551,0.017,0.861,0.051
		s0.645,0.088,1.005,0.161v-0.93c0-0.314-0.146-0.588-0.438-0.82s-0.729-0.349-1.313-0.349c-0.447,0-1.073,0.13-1.88,0.39
		c-0.146,0.045-0.239,0.068-0.28,0.068c-0.073,0-0.136-0.027-0.188-0.082s-0.079-0.123-0.079-0.205c0-0.078,0.023-0.139,0.068-0.185
		c0.064-0.068,0.321-0.162,0.772-0.28c0.711-0.191,1.249-0.287,1.613-0.287c0.725,0,1.29,0.179,1.695,0.537s0.608,0.762,0.608,1.213
		v3.801h0.766c0.141,0,0.242,0.026,0.301,0.079s0.089,0.122,0.089,0.208c0,0.082-0.03,0.15-0.089,0.205s-0.16,0.082-0.301,0.082
		H97.327z M97.327,43.333c-0.269-0.078-0.554-0.134-0.854-0.171s-0.618-0.055-0.95-0.055c-0.834,0-1.486,0.18-1.955,0.54
		c-0.355,0.269-0.533,0.59-0.533,0.964c0,0.346,0.136,0.638,0.407,0.875s0.667,0.355,1.186,0.355c0.497,0,0.958-0.099,1.384-0.297
		s0.865-0.514,1.316-0.947V43.333z"/>
	<path fill="#FFFFFF" d="M102.898,40.271h3.117c0.137,0,0.235,0.027,0.294,0.082s0.089,0.125,0.089,0.212
		c0,0.082-0.03,0.15-0.089,0.205s-0.157,0.082-0.294,0.082h-3.117v3.821c0,0.333,0.133,0.611,0.4,0.834s0.657,0.335,1.172,0.335
		c0.387,0,0.807-0.058,1.258-0.174s0.802-0.247,1.053-0.393c0.091-0.059,0.167-0.089,0.226-0.089c0.073,0,0.137,0.028,0.191,0.085
		s0.082,0.124,0.082,0.202c0,0.068-0.03,0.132-0.089,0.191c-0.146,0.15-0.5,0.313-1.063,0.489s-1.102,0.263-1.617,0.263
		c-0.67,0-1.203-0.157-1.6-0.472s-0.595-0.738-0.595-1.271v-3.821h-1.06c-0.137,0-0.235-0.027-0.294-0.082s-0.089-0.125-0.089-0.212
		c0-0.082,0.03-0.15,0.089-0.205s0.157-0.082,0.294-0.082h1.06v-1.695c0-0.137,0.027-0.235,0.082-0.294s0.123-0.089,0.205-0.089
		c0.086,0,0.157,0.03,0.212,0.089s0.082,0.157,0.082,0.294V40.271z"/>
	<path fill="#FFFFFF" d="M112.414,42.786c0-0.524,0.068-1.08,0.205-1.668s0.399-1.267,0.786-2.037s0.67-1.235,0.848-1.395
		c0.055-0.05,0.114-0.075,0.178-0.075c0.082,0,0.151,0.027,0.208,0.082s0.085,0.121,0.085,0.198c0,0.045-0.016,0.096-0.048,0.15
		c-0.501,0.92-0.859,1.754-1.073,2.502s-0.321,1.495-0.321,2.242c0,0.752,0.107,1.501,0.321,2.249s0.572,1.579,1.073,2.495
		c0.032,0.055,0.048,0.105,0.048,0.15c0,0.078-0.028,0.145-0.085,0.202s-0.126,0.085-0.208,0.085c-0.064,0-0.123-0.025-0.178-0.075
		c-0.168-0.155-0.444-0.608-0.827-1.36s-0.647-1.417-0.793-1.996S112.414,43.374,112.414,42.786z"/>
	<path fill="#FFFFFF" d="M121.048,42.793c0,0.524-0.068,1.079-0.205,1.665s-0.399,1.265-0.786,2.037s-0.67,1.236-0.848,1.391
		c-0.055,0.055-0.114,0.082-0.178,0.082c-0.082,0-0.151-0.028-0.208-0.085s-0.085-0.124-0.085-0.202c0-0.045,0.016-0.096,0.048-0.15
		c0.501-0.916,0.859-1.748,1.073-2.495s0.321-1.495,0.321-2.242c0-0.752-0.107-1.501-0.321-2.249s-0.572-1.582-1.073-2.502
		c-0.032-0.055-0.048-0.105-0.048-0.15c0-0.078,0.028-0.144,0.085-0.198s0.126-0.082,0.208-0.082c0.064,0,0.123,0.025,0.178,0.075
		c0.168,0.155,0.444,0.608,0.827,1.36s0.647,1.417,0.793,1.996S121.048,42.205,121.048,42.793z"/>
	<path fill="#FFFFFF" d="M128.157,44.126h1.805l-1.935,3.172c-0.096,0.155-0.172,0.253-0.229,0.294s-0.124,0.062-0.202,0.062
		c-0.109,0-0.201-0.034-0.273-0.103s-0.109-0.15-0.109-0.246c0-0.055,0.014-0.125,0.041-0.212L128.157,44.126z M129.155,40.271
		h0.253c0.255,0,0.473,0.091,0.653,0.273s0.27,0.399,0.27,0.649c0,0.269-0.091,0.492-0.273,0.67s-0.399,0.267-0.649,0.267h-0.253
		c-0.255,0-0.473-0.091-0.653-0.273s-0.27-0.399-0.27-0.649c0-0.269,0.092-0.492,0.277-0.67S128.909,40.271,129.155,40.271z"/>
	<path fill="#FFFFFF" d="M45.771,62.991H44.8l-2.358-5.339h-0.588c-0.137,0-0.235-0.027-0.294-0.082s-0.089-0.125-0.089-0.212
		c0-0.082,0.03-0.15,0.089-0.205s0.157-0.082,0.294-0.082h2.153c0.137,0,0.235,0.027,0.294,0.082s0.089,0.125,0.089,0.212
		c0,0.082-0.03,0.15-0.089,0.205s-0.157,0.082-0.294,0.082h-0.95l2.105,4.765h0.253l2.064-4.765h-0.957
		c-0.137,0-0.235-0.027-0.294-0.082s-0.089-0.125-0.089-0.212c0-0.082,0.03-0.15,0.089-0.205s0.157-0.082,0.294-0.082h2.16
		c0.141,0,0.24,0.027,0.297,0.082s0.085,0.125,0.085,0.212c0,0.082-0.028,0.15-0.085,0.205s-0.156,0.082-0.297,0.082h-0.581
		L45.771,62.991z"/>
	<path fill="#FFFFFF" d="M56.879,60.044c0,0.875-0.313,1.623-0.94,2.242s-1.382,0.93-2.266,0.93c-0.893,0-1.652-0.311-2.276-0.933
		s-0.937-1.368-0.937-2.239c0-0.875,0.312-1.624,0.937-2.246s1.383-0.933,2.276-0.933c0.884,0,1.64,0.31,2.266,0.93
		S56.879,59.165,56.879,60.044z M56.298,60.044c0-0.72-0.256-1.333-0.769-1.839s-1.134-0.759-1.863-0.759s-1.35,0.254-1.863,0.762
		s-0.769,1.12-0.769,1.835c0,0.711,0.256,1.322,0.769,1.832s1.134,0.766,1.863,0.766s1.35-0.254,1.863-0.762
		S56.298,60.76,56.298,60.044z"/>
	<path fill="#FFFFFF" d="M62.375,57.071v5.346h2.256c0.141,0,0.242,0.026,0.301,0.079s0.089,0.122,0.089,0.208
		c0,0.082-0.03,0.15-0.089,0.205s-0.16,0.082-0.301,0.082h-5.086c-0.137,0-0.235-0.027-0.294-0.082s-0.089-0.123-0.089-0.205
		c0-0.086,0.03-0.156,0.089-0.208s0.157-0.079,0.294-0.079h2.256v-4.765h-1.675c-0.137,0-0.236-0.027-0.297-0.082
		s-0.092-0.123-0.092-0.205c0-0.086,0.03-0.157,0.089-0.212s0.16-0.082,0.301-0.082H62.375z M62.354,54.125v1.483h-0.848v-1.483
		H62.354z"/>
	<path fill="#FFFFFF" d="M73.285,54.412v8.005h0.766c0.141,0,0.242,0.026,0.301,0.079s0.089,0.122,0.089,0.208
		c0,0.082-0.03,0.15-0.089,0.205s-0.16,0.082-0.301,0.082h-1.347v-1.142c-0.666,0.912-1.511,1.367-2.536,1.367
		c-0.52,0-1.018-0.138-1.494-0.414s-0.852-0.669-1.128-1.179s-0.414-1.037-0.414-1.579c0-0.547,0.138-1.074,0.414-1.583
		s0.652-0.901,1.128-1.179s0.977-0.417,1.5-0.417c1.002,0,1.846,0.456,2.529,1.367v-3.24h-0.766c-0.141,0-0.242-0.027-0.301-0.082
		s-0.089-0.125-0.089-0.212c0-0.082,0.03-0.15,0.089-0.205s0.16-0.082,0.301-0.082H73.285z M72.704,60.044
		c0-0.729-0.246-1.344-0.738-1.846s-1.078-0.752-1.757-0.752c-0.684,0-1.271,0.25-1.764,0.752s-0.738,1.117-0.738,1.846
		c0,0.725,0.246,1.339,0.738,1.842s1.08,0.755,1.764,0.755c0.679,0,1.265-0.252,1.757-0.755S72.704,60.769,72.704,60.044z"/>
	<path fill="#FFFFFF" d="M89.329,55.567v-0.191c0-0.137,0.026-0.235,0.079-0.294s0.122-0.089,0.208-0.089s0.156,0.03,0.208,0.089
		s0.079,0.157,0.079,0.294v1.463c0,0.137-0.026,0.235-0.079,0.294s-0.122,0.089-0.208,0.089c-0.082,0-0.149-0.027-0.202-0.082
		s-0.081-0.144-0.085-0.267c-0.023-0.383-0.22-0.727-0.591-1.032s-0.858-0.458-1.459-0.458c-0.633,0-1.137,0.163-1.511,0.489
		s-0.561,0.71-0.561,1.152c0,0.228,0.052,0.435,0.157,0.622s0.244,0.338,0.417,0.455s0.369,0.209,0.588,0.28
		s0.561,0.145,1.025,0.222c0.779,0.127,1.317,0.257,1.613,0.39c0.396,0.178,0.696,0.424,0.899,0.738s0.304,0.686,0.304,1.114
		c0,0.656-0.262,1.216-0.786,1.678s-1.23,0.694-2.119,0.694c-0.998,0-1.795-0.312-2.393-0.937v0.328
		c0,0.137-0.026,0.235-0.079,0.294s-0.122,0.089-0.208,0.089c-0.082,0-0.15-0.03-0.205-0.089s-0.082-0.157-0.082-0.294v-1.586
		c0-0.141,0.026-0.242,0.079-0.301s0.122-0.089,0.208-0.089c0.082,0,0.149,0.027,0.202,0.082s0.081,0.144,0.085,0.267
		c0.023,0.419,0.247,0.801,0.673,1.145s0.999,0.516,1.719,0.516s1.289-0.18,1.706-0.54s0.625-0.786,0.625-1.278
		c0-0.301-0.08-0.568-0.239-0.803s-0.396-0.42-0.711-0.557c-0.219-0.096-0.674-0.203-1.367-0.321
		c-0.953-0.16-1.638-0.403-2.058-0.731s-0.629-0.795-0.629-1.401c0-0.602,0.24-1.119,0.721-1.552s1.115-0.649,1.904-0.649
		C88.06,54.808,88.75,55.061,89.329,55.567z"/>
	<path fill="#FFFFFF" d="M95.967,54.412v8.005h2.256c0.141,0,0.242,0.026,0.301,0.079s0.089,0.122,0.089,0.208
		c0,0.082-0.03,0.15-0.089,0.205s-0.16,0.082-0.301,0.082h-5.086c-0.137,0-0.235-0.027-0.294-0.082s-0.089-0.123-0.089-0.205
		c0-0.086,0.03-0.156,0.089-0.208s0.157-0.079,0.294-0.079h2.256v-7.424h-1.654c-0.137,0-0.236-0.027-0.297-0.082
		s-0.092-0.125-0.092-0.212c0-0.082,0.03-0.15,0.089-0.205s0.16-0.082,0.301-0.082H95.967z"/>
	<path fill="#FFFFFF" d="M107.185,60.167h-5.852c0.1,0.743,0.411,1.341,0.933,1.794s1.168,0.68,1.938,0.68
		c0.428,0,0.877-0.071,1.347-0.212s0.852-0.328,1.148-0.561c0.086-0.068,0.162-0.103,0.226-0.103c0.073,0,0.137,0.028,0.191,0.085
		s0.082,0.124,0.082,0.202s-0.037,0.153-0.109,0.226c-0.219,0.228-0.607,0.441-1.166,0.639s-1.131,0.297-1.719,0.297
		c-0.984,0-1.806-0.322-2.464-0.967s-0.988-1.425-0.988-2.341c0-0.834,0.309-1.549,0.926-2.146s1.382-0.896,2.293-0.896
		c0.939,0,1.711,0.307,2.317,0.919S107.194,59.192,107.185,60.167z M106.604,59.586c-0.114-0.633-0.414-1.148-0.899-1.545
		s-1.063-0.595-1.733-0.595s-1.247,0.196-1.729,0.588s-0.784,0.909-0.902,1.552H106.604z"/>
	<path fill="#FFFFFF" d="M115.586,60.167h-5.852c0.1,0.743,0.411,1.341,0.933,1.794s1.168,0.68,1.938,0.68
		c0.428,0,0.877-0.071,1.347-0.212s0.852-0.328,1.148-0.561c0.086-0.068,0.162-0.103,0.226-0.103c0.073,0,0.137,0.028,0.191,0.085
		s0.082,0.124,0.082,0.202s-0.037,0.153-0.109,0.226c-0.219,0.228-0.607,0.441-1.166,0.639s-1.131,0.297-1.719,0.297
		c-0.984,0-1.806-0.322-2.464-0.967s-0.988-1.425-0.988-2.341c0-0.834,0.309-1.549,0.926-2.146s1.382-0.896,2.293-0.896
		c0.939,0,1.711,0.307,2.317,0.919S115.595,59.192,115.586,60.167z M115.005,59.586c-0.114-0.633-0.414-1.148-0.899-1.545
		s-1.063-0.595-1.733-0.595s-1.247,0.196-1.729,0.588s-0.784,0.909-0.902,1.552H115.005z"/>
	<path fill="#FFFFFF" d="M118.717,57.071v1.046c0.342-0.415,0.708-0.727,1.101-0.937s0.854-0.314,1.388-0.314
		c0.565,0,1.087,0.132,1.565,0.396s0.849,0.632,1.111,1.104s0.393,0.967,0.393,1.487c0,0.825-0.295,1.53-0.885,2.116
		s-1.316,0.878-2.177,0.878c-1.025,0-1.857-0.417-2.495-1.251v3.459h1.395c0.137,0,0.235,0.026,0.294,0.079s0.089,0.122,0.089,0.208
		c0,0.082-0.03,0.15-0.089,0.205s-0.157,0.082-0.294,0.082h-2.741c-0.137,0-0.235-0.026-0.294-0.079s-0.089-0.122-0.089-0.208
		s0.03-0.156,0.089-0.208s0.157-0.079,0.294-0.079h0.772v-7.403h-0.772c-0.137,0-0.235-0.027-0.294-0.082s-0.089-0.125-0.089-0.212
		c0-0.082,0.03-0.15,0.089-0.205s0.157-0.082,0.294-0.082H118.717z M123.693,59.853c0-0.661-0.24-1.227-0.721-1.699
		s-1.067-0.708-1.76-0.708c-0.697,0-1.288,0.237-1.771,0.711s-0.725,1.039-0.725,1.695c0,0.661,0.242,1.228,0.725,1.702
		s1.073,0.711,1.771,0.711c0.688,0,1.274-0.236,1.757-0.708S123.693,60.519,123.693,59.853z"/>
	<path fill="#FFFFFF" d="M129.217,59.586c0-0.524,0.068-1.08,0.205-1.668s0.399-1.267,0.786-2.037s0.67-1.235,0.848-1.395
		c0.055-0.05,0.114-0.075,0.178-0.075c0.082,0,0.151,0.027,0.208,0.082s0.085,0.121,0.085,0.198c0,0.045-0.016,0.096-0.048,0.15
		c-0.501,0.92-0.859,1.754-1.073,2.502s-0.321,1.495-0.321,2.242c0,0.752,0.107,1.501,0.321,2.249s0.572,1.579,1.073,2.495
		c0.032,0.055,0.048,0.105,0.048,0.15c0,0.078-0.028,0.145-0.085,0.202s-0.126,0.085-0.208,0.085c-0.064,0-0.123-0.025-0.178-0.075
		c-0.168-0.155-0.444-0.608-0.827-1.36s-0.647-1.417-0.793-1.996S129.217,60.174,129.217,59.586z"/>
	<path fill="#FFFFFF" d="M137.851,59.593c0,0.524-0.068,1.079-0.205,1.665s-0.399,1.265-0.786,2.037s-0.67,1.236-0.848,1.391
		c-0.055,0.055-0.114,0.082-0.178,0.082c-0.082,0-0.151-0.028-0.208-0.085s-0.085-0.124-0.085-0.202c0-0.045,0.016-0.096,0.048-0.15
		c0.501-0.916,0.859-1.748,1.073-2.495s0.321-1.495,0.321-2.242c0-0.752-0.107-1.501-0.321-2.249s-0.572-1.582-1.073-2.502
		c-0.032-0.055-0.048-0.105-0.048-0.15c0-0.078,0.028-0.144,0.085-0.198s0.126-0.082,0.208-0.082c0.064,0,0.123,0.025,0.178,0.075
		c0.168,0.155,0.444,0.608,0.827,1.36s0.647,1.417,0.793,1.996S137.851,59.005,137.851,59.593z"/>
	<path fill="#FFFFFF" d="M144.96,60.926h1.805l-1.935,3.172c-0.096,0.155-0.172,0.253-0.229,0.294s-0.124,0.062-0.202,0.062
		c-0.109,0-0.201-0.034-0.273-0.103s-0.109-0.15-0.109-0.246c0-0.055,0.014-0.125,0.041-0.212L144.96,60.926z M145.958,57.071h0.253
		c0.255,0,0.473,0.091,0.653,0.273s0.27,0.399,0.27,0.649c0,0.269-0.091,0.492-0.273,0.67s-0.399,0.267-0.649,0.267h-0.253
		c-0.255,0-0.473-0.091-0.653-0.273s-0.27-0.399-0.27-0.649c0-0.269,0.092-0.492,0.277-0.67S145.712,57.071,145.958,57.071z"/>
	<path fill="#FFFFFF" d="M9.606,76.386c-0.232-0.173-0.387-0.337-0.465-0.492c-0.105-0.201-0.157-0.442-0.157-0.725v-2.461
		c0-0.255-0.075-0.467-0.226-0.636s-0.337-0.262-0.561-0.28c-0.146-0.014-0.239-0.041-0.28-0.082
		c-0.059-0.059-0.089-0.13-0.089-0.212s0.028-0.15,0.085-0.205s0.143-0.082,0.256-0.082c0.365,0,0.666,0.116,0.902,0.349
		c0.324,0.31,0.485,0.693,0.485,1.148v2.461c0,0.25,0.076,0.461,0.229,0.632s0.345,0.266,0.578,0.284
		c0.123,0.014,0.211,0.045,0.263,0.096s0.079,0.119,0.079,0.205c0,0.091-0.026,0.162-0.079,0.212s-0.14,0.082-0.263,0.096
		c-0.237,0.018-0.431,0.113-0.581,0.284s-0.226,0.382-0.226,0.632v2.461c0,0.428-0.137,0.785-0.41,1.07s-0.599,0.427-0.978,0.427
		c-0.114,0-0.199-0.027-0.256-0.082s-0.085-0.125-0.085-0.212c0-0.082,0.027-0.15,0.082-0.205C7.957,81.028,8.052,81,8.198,80.987
		c0.228-0.023,0.416-0.12,0.564-0.291s0.222-0.382,0.222-0.632V77.61c0-0.287,0.045-0.52,0.137-0.697S9.374,76.56,9.606,76.386z"/>
	<path fill="#FFFFFF" d="M16.545,77.726h1.805l-1.935,3.172c-0.096,0.155-0.172,0.253-0.229,0.294s-0.124,0.062-0.202,0.062
		c-0.109,0-0.201-0.034-0.273-0.103s-0.109-0.15-0.109-0.246c0-0.055,0.014-0.125,0.041-0.212L16.545,77.726z M17.543,73.871h0.253
		c0.255,0,0.473,0.091,0.653,0.273s0.27,0.399,0.27,0.649c0,0.269-0.091,0.492-0.273,0.67s-0.399,0.267-0.649,0.267h-0.253
		c-0.255,0-0.473-0.091-0.653-0.273s-0.27-0.399-0.27-0.649c0-0.269,0.092-0.492,0.277-0.67S17.297,73.871,17.543,73.871z"/>
	<path fill="#FFFFFF" d="M11.664,108.052v-0.191c0-0.141,0.027-0.242,0.082-0.301s0.123-0.089,0.205-0.089
		c0.086,0,0.157,0.03,0.212,0.089s0.082,0.16,0.082,0.301v1.299c-0.004,0.141-0.033,0.242-0.085,0.301s-0.122,0.089-0.208,0.089
		c-0.078,0-0.143-0.026-0.195-0.079s-0.083-0.14-0.092-0.263c-0.027-0.324-0.24-0.631-0.639-0.923s-0.936-0.438-1.61-0.438
		c-0.852,0-1.5,0.267-1.941,0.8s-0.663,1.144-0.663,1.832c0,0.743,0.244,1.356,0.731,1.839s1.119,0.725,1.894,0.725
		c0.447,0,0.901-0.082,1.364-0.246s0.881-0.428,1.254-0.793c0.096-0.091,0.18-0.137,0.253-0.137c0.078,0,0.143,0.026,0.195,0.079
		s0.079,0.117,0.079,0.195c0,0.196-0.23,0.444-0.69,0.745c-0.743,0.488-1.57,0.731-2.481,0.731c-0.925,0-1.685-0.295-2.28-0.885
		s-0.892-1.339-0.892-2.246c0-0.925,0.304-1.693,0.913-2.304s1.375-0.916,2.3-0.916C10.329,107.266,11.067,107.528,11.664,108.052z"
		/>
	<path fill="#FFFFFF" d="M17.96,104.812v8.005h2.256c0.141,0,0.242,0.026,0.301,0.079s0.089,0.122,0.089,0.208
		c0,0.082-0.03,0.15-0.089,0.205s-0.16,0.082-0.301,0.082H15.13c-0.137,0-0.235-0.027-0.294-0.082s-0.089-0.123-0.089-0.205
		c0-0.086,0.03-0.156,0.089-0.208s0.157-0.079,0.294-0.079h2.256v-7.424h-1.654c-0.137,0-0.236-0.027-0.297-0.082
		s-0.092-0.125-0.092-0.212c0-0.082,0.03-0.15,0.089-0.205s0.16-0.082,0.301-0.082H17.96z"/>
	<path fill="#FFFFFF" d="M27.722,113.391v-0.827c-0.834,0.702-1.725,1.053-2.673,1.053c-0.688,0-1.226-0.174-1.613-0.523
		s-0.581-0.776-0.581-1.282c0-0.556,0.255-1.042,0.766-1.456s1.255-0.622,2.235-0.622c0.264,0,0.551,0.017,0.861,0.051
		s0.645,0.088,1.005,0.161v-0.93c0-0.314-0.146-0.588-0.438-0.82s-0.729-0.349-1.313-0.349c-0.447,0-1.073,0.13-1.88,0.39
		c-0.146,0.045-0.239,0.068-0.28,0.068c-0.073,0-0.136-0.027-0.188-0.082s-0.079-0.123-0.079-0.205c0-0.078,0.023-0.139,0.068-0.185
		c0.064-0.068,0.321-0.162,0.772-0.28c0.711-0.191,1.249-0.287,1.613-0.287c0.725,0,1.29,0.179,1.695,0.537s0.608,0.762,0.608,1.213
		v3.801h0.766c0.141,0,0.242,0.026,0.301,0.079s0.089,0.122,0.089,0.208c0,0.082-0.03,0.15-0.089,0.205s-0.16,0.082-0.301,0.082
		H27.722z M27.722,110.533c-0.269-0.078-0.554-0.134-0.854-0.171s-0.618-0.055-0.95-0.055c-0.834,0-1.486,0.18-1.955,0.54
		c-0.355,0.269-0.533,0.59-0.533,0.964c0,0.346,0.136,0.638,0.407,0.875s0.667,0.355,1.186,0.355c0.497,0,0.958-0.099,1.384-0.297
		s0.865-0.514,1.316-0.947V110.533z"/>
	<path fill="#FFFFFF" d="M36.369,107.847c0-0.132,0.027-0.228,0.082-0.287s0.123-0.089,0.205-0.089c0.086,0,0.157,0.03,0.212,0.089
		s0.082,0.16,0.082,0.301v0.984c0,0.137-0.027,0.235-0.082,0.294s-0.125,0.089-0.212,0.089c-0.078,0-0.143-0.025-0.195-0.075
		s-0.083-0.132-0.092-0.246c-0.027-0.273-0.168-0.499-0.424-0.677c-0.374-0.255-0.868-0.383-1.483-0.383
		c-0.643,0-1.142,0.13-1.497,0.39c-0.269,0.196-0.403,0.415-0.403,0.656c0,0.273,0.16,0.501,0.479,0.684
		c0.219,0.127,0.633,0.226,1.244,0.294c0.797,0.086,1.351,0.185,1.661,0.294c0.442,0.16,0.771,0.38,0.988,0.663
		s0.325,0.588,0.325,0.916c0,0.488-0.235,0.922-0.704,1.302s-1.158,0.571-2.064,0.571s-1.65-0.23-2.229-0.69
		c0,0.155-0.009,0.255-0.027,0.301s-0.051,0.084-0.099,0.116s-0.102,0.048-0.161,0.048c-0.082,0-0.15-0.03-0.205-0.089
		s-0.082-0.157-0.082-0.294v-1.183c0-0.137,0.026-0.235,0.079-0.294s0.122-0.089,0.208-0.089c0.082,0,0.151,0.028,0.208,0.085
		s0.085,0.133,0.085,0.229c0,0.209,0.052,0.385,0.157,0.526c0.16,0.219,0.414,0.4,0.762,0.543s0.776,0.215,1.282,0.215
		c0.748,0,1.303-0.139,1.668-0.417s0.547-0.572,0.547-0.882c0-0.355-0.185-0.64-0.554-0.854c-0.374-0.214-0.917-0.358-1.63-0.431
		s-1.225-0.168-1.535-0.287s-0.551-0.296-0.725-0.533s-0.26-0.492-0.26-0.766c0-0.492,0.242-0.883,0.725-1.172
		s1.06-0.434,1.729-0.434C35.228,107.266,35.873,107.459,36.369,107.847z"/>
	<path fill="#FFFFFF" d="M44.771,107.847c0-0.132,0.027-0.228,0.082-0.287s0.123-0.089,0.205-0.089c0.086,0,0.157,0.03,0.212,0.089
		s0.082,0.16,0.082,0.301v0.984c0,0.137-0.027,0.235-0.082,0.294s-0.125,0.089-0.212,0.089c-0.078,0-0.143-0.025-0.195-0.075
		s-0.083-0.132-0.092-0.246c-0.027-0.273-0.168-0.499-0.424-0.677c-0.374-0.255-0.868-0.383-1.483-0.383
		c-0.643,0-1.142,0.13-1.497,0.39c-0.269,0.196-0.403,0.415-0.403,0.656c0,0.273,0.16,0.501,0.479,0.684
		c0.219,0.127,0.633,0.226,1.244,0.294c0.797,0.086,1.351,0.185,1.661,0.294c0.442,0.16,0.771,0.38,0.988,0.663
		s0.325,0.588,0.325,0.916c0,0.488-0.235,0.922-0.704,1.302s-1.158,0.571-2.064,0.571s-1.65-0.23-2.229-0.69
		c0,0.155-0.009,0.255-0.027,0.301s-0.051,0.084-0.099,0.116s-0.102,0.048-0.161,0.048c-0.082,0-0.15-0.03-0.205-0.089
		s-0.082-0.157-0.082-0.294v-1.183c0-0.137,0.026-0.235,0.079-0.294s0.122-0.089,0.208-0.089c0.082,0,0.151,0.028,0.208,0.085
		s0.085,0.133,0.085,0.229c0,0.209,0.052,0.385,0.157,0.526c0.16,0.219,0.414,0.4,0.762,0.543s0.776,0.215,1.282,0.215
		c0.748,0,1.303-0.139,1.668-0.417s0.547-0.572,0.547-0.882c0-0.355-0.185-0.64-0.554-0.854c-0.374-0.214-0.917-0.358-1.63-0.431
		s-1.225-0.168-1.535-0.287s-0.551-0.296-0.725-0.533s-0.26-0.492-0.26-0.766c0-0.492,0.242-0.883,0.725-1.172
		s1.06-0.434,1.729-0.434C43.629,107.266,44.274,107.459,44.771,107.847z"/>
	<path fill="#FFFFFF" d="M62.489,113.391h-0.738l-4.231-7.157v6.583h1.06c0.141,0,0.242,0.026,0.301,0.079s0.089,0.122,0.089,0.208
		c0,0.082-0.03,0.15-0.089,0.205s-0.16,0.082-0.301,0.082h-2.112c-0.141,0-0.242-0.027-0.301-0.082s-0.089-0.123-0.089-0.205
		c0-0.086,0.03-0.156,0.089-0.208s0.16-0.079,0.301-0.079h0.479v-6.85h-0.772c-0.137,0-0.235-0.026-0.294-0.079
		s-0.089-0.122-0.089-0.208s0.03-0.156,0.089-0.208s0.157-0.079,0.294-0.079h1.504l4.238,7.171v-6.597h-1.06
		c-0.137,0-0.235-0.026-0.294-0.079s-0.089-0.122-0.089-0.208s0.028-0.156,0.085-0.208s0.156-0.079,0.297-0.079h2.119
		c0.137,0,0.235,0.026,0.294,0.079s0.089,0.122,0.089,0.208s-0.03,0.156-0.089,0.208s-0.157,0.079-0.294,0.079h-0.485V113.391z"/>
	<path fill="#FFFFFF" d="M68.382,107.471v5.346h2.256c0.141,0,0.242,0.026,0.301,0.079s0.089,0.122,0.089,0.208
		c0,0.082-0.03,0.15-0.089,0.205s-0.16,0.082-0.301,0.082h-5.086c-0.137,0-0.235-0.027-0.294-0.082s-0.089-0.123-0.089-0.205
		c0-0.086,0.03-0.156,0.089-0.208s0.157-0.079,0.294-0.079h2.256v-4.765h-1.675c-0.137,0-0.236-0.027-0.297-0.082
		s-0.092-0.123-0.092-0.205c0-0.086,0.03-0.157,0.089-0.212s0.16-0.082,0.301-0.082H68.382z M68.361,104.524v1.483h-0.848v-1.483
		H68.361z"/>
	<path fill="#FFFFFF" d="M78.875,108.052v-0.191c0-0.141,0.027-0.242,0.082-0.301s0.123-0.089,0.205-0.089
		c0.086,0,0.157,0.03,0.212,0.089s0.082,0.16,0.082,0.301v1.299c-0.004,0.141-0.033,0.242-0.085,0.301s-0.122,0.089-0.208,0.089
		c-0.078,0-0.143-0.026-0.195-0.079s-0.083-0.14-0.092-0.263c-0.027-0.324-0.24-0.631-0.639-0.923s-0.936-0.438-1.61-0.438
		c-0.852,0-1.5,0.267-1.941,0.8s-0.663,1.144-0.663,1.832c0,0.743,0.244,1.356,0.731,1.839s1.119,0.725,1.894,0.725
		c0.447,0,0.901-0.082,1.364-0.246s0.881-0.428,1.254-0.793c0.096-0.091,0.18-0.137,0.253-0.137c0.078,0,0.143,0.026,0.195,0.079
		s0.079,0.117,0.079,0.195c0,0.196-0.23,0.444-0.69,0.745c-0.743,0.488-1.57,0.731-2.481,0.731c-0.925,0-1.685-0.295-2.28-0.885
		s-0.892-1.339-0.892-2.246c0-0.925,0.304-1.693,0.913-2.304s1.375-0.916,2.3-0.916C77.54,107.266,78.278,107.528,78.875,108.052z"
		/>
	<path fill="#FFFFFF" d="M83.715,110.834v2.557h-1.347c-0.137,0-0.235-0.027-0.294-0.082s-0.089-0.123-0.089-0.205
		c0-0.086,0.03-0.156,0.089-0.208s0.157-0.079,0.294-0.079h0.772v-7.424h-0.772c-0.137,0-0.235-0.027-0.294-0.082
		s-0.089-0.125-0.089-0.212c0-0.082,0.03-0.15,0.089-0.205s0.157-0.082,0.294-0.082h1.347v5.291l2.44-2.051h-0.294
		c-0.137,0-0.235-0.027-0.294-0.082s-0.089-0.123-0.089-0.205c0-0.086,0.03-0.157,0.089-0.212s0.157-0.082,0.294-0.082H87.7
		c0.141,0,0.242,0.027,0.301,0.082s0.089,0.125,0.089,0.212c0,0.082-0.03,0.15-0.089,0.205s-0.16,0.082-0.301,0.082h-0.663
		l-2.242,1.873l2.837,2.892h0.663c0.141,0,0.242,0.026,0.301,0.079s0.089,0.122,0.089,0.208c0,0.082-0.03,0.15-0.089,0.205
		s-0.16,0.082-0.301,0.082h-1.859c-0.137,0-0.235-0.027-0.294-0.082s-0.089-0.123-0.089-0.205c0-0.086,0.03-0.156,0.089-0.208
		s0.157-0.079,0.294-0.079h0.403l-2.468-2.536L83.715,110.834z"/>
	<path fill="#FFFFFF" d="M101.563,107.471h0.246c0.255,0,0.474,0.091,0.656,0.273s0.273,0.399,0.273,0.649
		c0,0.269-0.092,0.492-0.277,0.67s-0.402,0.267-0.653,0.267h-0.246c-0.255,0-0.474-0.091-0.656-0.273s-0.273-0.399-0.273-0.649
		c0-0.269,0.092-0.492,0.277-0.67S101.313,107.471,101.563,107.471z M101.563,111.743h0.246c0.255,0,0.474,0.09,0.656,0.27
		s0.273,0.397,0.273,0.653c0,0.264-0.092,0.485-0.277,0.663s-0.402,0.267-0.653,0.267h-0.246c-0.255,0-0.474-0.09-0.656-0.27
		s-0.273-0.397-0.273-0.653c0-0.264,0.092-0.485,0.277-0.663S101.313,111.743,101.563,111.743z"/>
	<path fill="#FFFFFF" d="M120.431,109.521h-3.808v3.295h0.772c0.137,0,0.235,0.026,0.294,0.079s0.089,0.122,0.089,0.208
		c0,0.082-0.03,0.15-0.089,0.205s-0.157,0.082-0.294,0.082h-1.996c-0.137,0-0.235-0.027-0.294-0.082s-0.089-0.123-0.089-0.205
		c0-0.086,0.03-0.156,0.089-0.208s0.157-0.079,0.294-0.079h0.649v-6.85h-0.355c-0.141,0-0.242-0.026-0.301-0.079
		s-0.089-0.122-0.089-0.208s0.03-0.156,0.089-0.208s0.16-0.079,0.301-0.079h1.702c0.137,0,0.235,0.026,0.294,0.079
		s0.089,0.122,0.089,0.208s-0.03,0.156-0.089,0.208s-0.157,0.079-0.294,0.079h-0.772v2.98h3.808v-2.98h-0.766
		c-0.137,0-0.235-0.026-0.294-0.079s-0.089-0.122-0.089-0.208s0.028-0.156,0.085-0.208s0.156-0.079,0.297-0.079h1.702
		c0.141,0,0.242,0.026,0.301,0.079s0.089,0.122,0.089,0.208s-0.03,0.156-0.089,0.208s-0.16,0.079-0.301,0.079h-0.355v6.85h0.649
		c0.137,0,0.235,0.026,0.294,0.079s0.089,0.122,0.089,0.208c0,0.082-0.03,0.15-0.089,0.205s-0.157,0.082-0.294,0.082h-1.996
		c-0.137,0-0.235-0.027-0.294-0.082s-0.089-0.123-0.089-0.205c0-0.086,0.028-0.156,0.085-0.208s0.156-0.079,0.297-0.079h0.766
		V109.521z"/>
	<path fill="#FFFFFF" d="M128.853,113.391v-0.841c-0.784,0.711-1.631,1.066-2.543,1.066c-0.561,0-0.987-0.153-1.278-0.458
		c-0.378-0.401-0.567-0.868-0.567-1.401v-3.705h-0.772c-0.137,0-0.235-0.027-0.294-0.082s-0.089-0.125-0.089-0.212
		c0-0.082,0.03-0.15,0.089-0.205s0.157-0.082,0.294-0.082h1.347v4.286c0,0.374,0.119,0.681,0.355,0.923s0.533,0.362,0.889,0.362
		c0.934,0,1.791-0.428,2.57-1.285v-3.705h-1.06c-0.137,0-0.235-0.027-0.294-0.082s-0.089-0.125-0.089-0.212
		c0-0.082,0.03-0.15,0.089-0.205s0.157-0.082,0.294-0.082h1.634v5.346h0.485c0.137,0,0.235,0.026,0.294,0.079
		s0.089,0.122,0.089,0.208c0,0.082-0.03,0.15-0.089,0.205s-0.157,0.082-0.294,0.082H128.853z"/>
	<path fill="#FFFFFF" d="M132.674,107.471v0.581c0.488-0.524,0.978-0.786,1.47-0.786c0.296,0,0.556,0.079,0.779,0.236
		s0.41,0.396,0.561,0.714c0.255-0.319,0.514-0.557,0.776-0.714s0.525-0.236,0.79-0.236c0.415,0,0.745,0.134,0.991,0.403
		c0.324,0.346,0.485,0.725,0.485,1.135v4.013h0.485c0.137,0,0.235,0.026,0.294,0.079s0.089,0.122,0.089,0.208
		c0,0.082-0.03,0.15-0.089,0.205s-0.157,0.082-0.294,0.082h-1.06v-4.532c0-0.292-0.089-0.533-0.267-0.725s-0.383-0.287-0.615-0.287
		c-0.209,0-0.431,0.079-0.663,0.236s-0.497,0.466-0.793,0.926v3.808h0.479c0.137,0,0.235,0.026,0.294,0.079s0.089,0.122,0.089,0.208
		c0,0.082-0.03,0.15-0.089,0.205s-0.157,0.082-0.294,0.082h-1.06v-4.491c0-0.305-0.09-0.557-0.27-0.755s-0.382-0.297-0.605-0.297
		c-0.205,0-0.408,0.066-0.608,0.198c-0.278,0.187-0.57,0.508-0.875,0.964v3.808h0.485c0.137,0,0.235,0.026,0.294,0.079
		s0.089,0.122,0.089,0.208c0,0.082-0.03,0.15-0.089,0.205s-0.157,0.082-0.294,0.082h-1.545c-0.137,0-0.235-0.027-0.294-0.082
		s-0.089-0.123-0.089-0.205c0-0.086,0.03-0.156,0.089-0.208s0.157-0.079,0.294-0.079h0.485v-4.765h-0.485
		c-0.137,0-0.235-0.027-0.294-0.082s-0.089-0.125-0.089-0.212c0-0.082,0.03-0.15,0.089-0.205s0.157-0.082,0.294-0.082H132.674z"/>
	<path fill="#FFFFFF" d="M145.341,113.391v-0.827c-0.834,0.702-1.725,1.053-2.673,1.053c-0.688,0-1.226-0.174-1.613-0.523
		s-0.581-0.776-0.581-1.282c0-0.556,0.255-1.042,0.766-1.456s1.255-0.622,2.235-0.622c0.264,0,0.551,0.017,0.861,0.051
		s0.645,0.088,1.005,0.161v-0.93c0-0.314-0.146-0.588-0.438-0.82s-0.729-0.349-1.313-0.349c-0.447,0-1.073,0.13-1.88,0.39
		c-0.146,0.045-0.239,0.068-0.28,0.068c-0.073,0-0.136-0.027-0.188-0.082s-0.079-0.123-0.079-0.205c0-0.078,0.023-0.139,0.068-0.185
		c0.064-0.068,0.321-0.162,0.772-0.28c0.711-0.191,1.249-0.287,1.613-0.287c0.725,0,1.29,0.179,1.695,0.537s0.608,0.762,0.608,1.213
		v3.801h0.766c0.141,0,0.242,0.026,0.301,0.079s0.089,0.122,0.089,0.208c0,0.082-0.03,0.15-0.089,0.205s-0.16,0.082-0.301,0.082
		H145.341z M145.341,110.533c-0.269-0.078-0.554-0.134-0.854-0.171s-0.618-0.055-0.95-0.055c-0.834,0-1.486,0.18-1.955,0.54
		c-0.355,0.269-0.533,0.59-0.533,0.964c0,0.346,0.136,0.638,0.407,0.875s0.667,0.355,1.186,0.355c0.497,0,0.958-0.099,1.384-0.297
		s0.865-0.514,1.316-0.947V110.533z"/>
	<path fill="#FFFFFF" d="M150.235,107.471v0.868c0.401-0.406,0.763-0.686,1.087-0.841s0.688-0.232,1.094-0.232
		c0.438,0,0.836,0.093,1.196,0.28c0.255,0.137,0.486,0.363,0.694,0.68s0.311,0.642,0.311,0.974v3.616h0.485
		c0.137,0,0.235,0.026,0.294,0.079s0.089,0.122,0.089,0.208c0,0.082-0.03,0.15-0.089,0.205s-0.157,0.082-0.294,0.082h-1.538
		c-0.141,0-0.242-0.027-0.301-0.082s-0.089-0.123-0.089-0.205c0-0.086,0.03-0.156,0.089-0.208s0.16-0.079,0.301-0.079h0.479v-3.521
		c0-0.406-0.148-0.749-0.444-1.029s-0.693-0.42-1.189-0.42c-0.378,0-0.707,0.076-0.984,0.229s-0.674,0.532-1.189,1.138v3.603h0.649
		c0.137,0,0.235,0.026,0.294,0.079s0.089,0.122,0.089,0.208c0,0.082-0.03,0.15-0.089,0.205s-0.157,0.082-0.294,0.082h-1.873
		c-0.137,0-0.235-0.027-0.294-0.082s-0.089-0.123-0.089-0.205c0-0.086,0.03-0.156,0.089-0.208s0.157-0.079,0.294-0.079h0.649v-4.765
		h-0.485c-0.137,0-0.235-0.027-0.294-0.082s-0.089-0.125-0.089-0.212c0-0.082,0.03-0.15,0.089-0.205s0.157-0.082,0.294-0.082
		H150.235z"/>
	<path fill="#FFFFFF" d="M168.563,109.986c0.228,0.173,0.383,0.337,0.465,0.492c0.104,0.205,0.157,0.449,0.157,0.731v2.454
		c0,0.26,0.075,0.473,0.226,0.639s0.337,0.261,0.561,0.284c0.142,0.014,0.234,0.041,0.28,0.082c0.06,0.055,0.089,0.123,0.089,0.205
		c0,0.086-0.029,0.156-0.089,0.208s-0.146,0.079-0.26,0.079c-0.36,0-0.661-0.114-0.902-0.342c-0.323-0.314-0.485-0.697-0.485-1.148
		v-2.461c0-0.25-0.075-0.461-0.226-0.632s-0.342-0.266-0.574-0.284c-0.128-0.014-0.217-0.045-0.267-0.096s-0.075-0.121-0.075-0.212
		c0-0.086,0.025-0.155,0.075-0.205s0.139-0.082,0.267-0.096c0.237-0.018,0.43-0.113,0.577-0.284
		c0.148-0.171,0.223-0.382,0.223-0.632v-2.461c0-0.428,0.137-0.785,0.41-1.07s0.602-0.427,0.984-0.427
		c0.109,0,0.193,0.027,0.253,0.082s0.089,0.123,0.089,0.205s-0.029,0.15-0.089,0.205c-0.041,0.045-0.135,0.075-0.28,0.089
		c-0.228,0.023-0.416,0.119-0.564,0.287c-0.147,0.168-0.222,0.378-0.222,0.629v2.461c0,0.287-0.046,0.519-0.137,0.694
		S168.795,109.813,168.563,109.986z"/>
	<path fill="#FFFFFF" d="M47.158,127.518h-3.773l-0.772,2.099h1.101c0.137,0,0.235,0.026,0.294,0.079s0.089,0.122,0.089,0.208
		c0,0.082-0.03,0.15-0.089,0.205s-0.157,0.082-0.294,0.082h-2.146c-0.137,0-0.235-0.027-0.294-0.082s-0.089-0.123-0.089-0.205
		c0-0.086,0.03-0.156,0.089-0.208s0.157-0.079,0.294-0.079h0.444l2.536-6.85h-1.695c-0.137,0-0.235-0.026-0.294-0.079
		s-0.089-0.122-0.089-0.208s0.03-0.156,0.089-0.208s0.157-0.079,0.294-0.079h2.892l2.803,7.424h0.444
		c0.137,0,0.235,0.026,0.294,0.079s0.089,0.122,0.089,0.208c0,0.082-0.03,0.15-0.089,0.205s-0.157,0.082-0.294,0.082h-2.14
		c-0.141,0-0.242-0.027-0.301-0.082s-0.089-0.123-0.089-0.205c0-0.086,0.03-0.156,0.089-0.208s0.16-0.079,0.301-0.079h1.094
		L47.158,127.518z M46.939,126.944l-1.586-4.177h-0.212l-1.538,4.177H46.939z"/>
	<path fill="#FFFFFF" d="M52.982,124.271v1.449c0.748-0.674,1.307-1.108,1.678-1.302s0.714-0.291,1.029-0.291
		c0.342,0,0.66,0.115,0.954,0.345s0.441,0.404,0.441,0.523c0,0.086-0.028,0.158-0.085,0.215s-0.129,0.085-0.215,0.085
		c-0.045,0-0.084-0.008-0.116-0.024s-0.091-0.067-0.178-0.154c-0.16-0.16-0.298-0.269-0.417-0.328s-0.235-0.089-0.349-0.089
		c-0.25,0-0.553,0.1-0.906,0.301s-0.965,0.69-1.835,1.47v3.145h2.543c0.141,0,0.242,0.026,0.301,0.079s0.089,0.122,0.089,0.208
		c0,0.082-0.03,0.15-0.089,0.205s-0.16,0.082-0.301,0.082h-4.505c-0.137,0-0.235-0.026-0.294-0.079s-0.089-0.12-0.089-0.202
		c0-0.078,0.028-0.143,0.085-0.195s0.156-0.079,0.297-0.079h1.388v-4.785h-1.06c-0.137,0-0.235-0.027-0.294-0.082
		s-0.089-0.125-0.089-0.212c0-0.082,0.028-0.15,0.085-0.205s0.156-0.082,0.297-0.082H52.982z"/>
	<path fill="#FFFFFF" d="M60.892,124.271h3.117c0.137,0,0.235,0.027,0.294,0.082s0.089,0.125,0.089,0.212
		c0,0.082-0.03,0.15-0.089,0.205s-0.157,0.082-0.294,0.082h-3.117v3.821c0,0.333,0.133,0.611,0.4,0.834s0.657,0.335,1.172,0.335
		c0.387,0,0.807-0.058,1.258-0.174s0.802-0.247,1.053-0.393c0.091-0.059,0.167-0.089,0.226-0.089c0.073,0,0.137,0.028,0.191,0.085
		s0.082,0.124,0.082,0.202c0,0.068-0.03,0.132-0.089,0.191c-0.146,0.15-0.5,0.313-1.063,0.489s-1.102,0.263-1.617,0.263
		c-0.67,0-1.203-0.157-1.6-0.472s-0.595-0.738-0.595-1.271v-3.821h-1.06c-0.137,0-0.235-0.027-0.294-0.082s-0.089-0.125-0.089-0.212
		c0-0.082,0.03-0.15,0.089-0.205s0.157-0.082,0.294-0.082h1.06v-1.695c0-0.137,0.027-0.235,0.082-0.294s0.123-0.089,0.205-0.089
		c0.086,0,0.157,0.03,0.212,0.089s0.082,0.157,0.082,0.294V124.271z"/>
	<path fill="#FFFFFF" d="M76.621,129.617v-6.85h-0.485c-0.137,0-0.235-0.026-0.294-0.079s-0.089-0.122-0.089-0.208
		s0.03-0.156,0.089-0.208s0.157-0.079,0.294-0.079h3.09c0.483,0,0.924,0.1,1.323,0.301s0.703,0.428,0.913,0.684
		c0.36,0.433,0.633,0.891,0.82,1.374c0.132,0.351,0.198,0.766,0.198,1.244v0.793c0,0.588-0.13,1.158-0.39,1.709
		s-0.693,1.032-1.299,1.442c-0.451,0.301-0.973,0.451-1.565,0.451h-3.09c-0.137,0-0.235-0.027-0.294-0.082s-0.089-0.123-0.089-0.205
		c0-0.086,0.03-0.156,0.089-0.208s0.157-0.079,0.294-0.079H76.621z M77.195,129.617h2.085c0.483,0,0.936-0.157,1.357-0.472
		s0.738-0.691,0.95-1.131s0.318-0.874,0.318-1.302v-1.039c0-0.355-0.057-0.672-0.171-0.95c-0.164-0.406-0.396-0.791-0.697-1.155
		c-0.164-0.201-0.406-0.384-0.725-0.55s-0.663-0.25-1.032-0.25h-2.085V129.617z"/>
	<path fill="#FFFFFF" d="M86.588,124.271v1.449c0.748-0.674,1.307-1.108,1.678-1.302s0.714-0.291,1.029-0.291
		c0.342,0,0.66,0.115,0.954,0.345s0.441,0.404,0.441,0.523c0,0.086-0.028,0.158-0.085,0.215s-0.129,0.085-0.215,0.085
		c-0.045,0-0.084-0.008-0.116-0.024s-0.091-0.067-0.178-0.154c-0.16-0.16-0.298-0.269-0.417-0.328s-0.235-0.089-0.349-0.089
		c-0.25,0-0.553,0.1-0.906,0.301s-0.965,0.69-1.835,1.47v3.145h2.543c0.141,0,0.242,0.026,0.301,0.079s0.089,0.122,0.089,0.208
		c0,0.082-0.03,0.15-0.089,0.205s-0.16,0.082-0.301,0.082h-4.505c-0.137,0-0.235-0.026-0.294-0.079s-0.089-0.12-0.089-0.202
		c0-0.078,0.028-0.143,0.085-0.195s0.156-0.079,0.297-0.079h1.388v-4.785h-1.06c-0.137,0-0.235-0.027-0.294-0.082
		s-0.089-0.125-0.089-0.212c0-0.082,0.028-0.15,0.085-0.205s0.156-0.082,0.297-0.082H86.588z"/>
	<path fill="#FFFFFF" d="M97.327,130.191v-0.827c-0.834,0.702-1.725,1.053-2.673,1.053c-0.688,0-1.226-0.174-1.613-0.523
		s-0.581-0.776-0.581-1.282c0-0.556,0.255-1.042,0.766-1.456s1.255-0.622,2.235-0.622c0.264,0,0.551,0.017,0.861,0.051
		s0.645,0.088,1.005,0.161v-0.93c0-0.314-0.146-0.588-0.438-0.82s-0.729-0.349-1.313-0.349c-0.447,0-1.073,0.13-1.88,0.39
		c-0.146,0.045-0.239,0.068-0.28,0.068c-0.073,0-0.136-0.027-0.188-0.082s-0.079-0.123-0.079-0.205c0-0.078,0.023-0.139,0.068-0.185
		c0.064-0.068,0.321-0.162,0.772-0.28c0.711-0.191,1.249-0.287,1.613-0.287c0.725,0,1.29,0.179,1.695,0.537s0.608,0.762,0.608,1.213
		v3.801h0.766c0.141,0,0.242,0.026,0.301,0.079s0.089,0.122,0.089,0.208c0,0.082-0.03,0.15-0.089,0.205s-0.16,0.082-0.301,0.082
		H97.327z M97.327,127.333c-0.269-0.078-0.554-0.134-0.854-0.171s-0.618-0.055-0.95-0.055c-0.834,0-1.486,0.18-1.955,0.54
		c-0.355,0.269-0.533,0.59-0.533,0.964c0,0.346,0.136,0.638,0.407,0.875s0.667,0.355,1.186,0.355c0.497,0,0.958-0.099,1.384-0.297
		s0.865-0.514,1.316-0.947V127.333z"/>
	<path fill="#FFFFFF" d="M106.057,130.191l-0.711,0.007l-1.265-3.691l-1.258,3.691l-0.711-0.007l-1.189-5.339h-0.28
		c-0.137,0-0.235-0.027-0.294-0.082s-0.089-0.125-0.089-0.212c0-0.082,0.03-0.15,0.089-0.205s0.157-0.082,0.294-0.082h1.579
		c0.137,0,0.235,0.027,0.294,0.082s0.089,0.125,0.089,0.212c0,0.082-0.03,0.15-0.089,0.205s-0.157,0.082-0.294,0.082h-0.731
		l1.019,4.553l1.224-3.637h0.684l1.258,3.637l0.978-4.553h-0.725c-0.137,0-0.236-0.027-0.297-0.082s-0.092-0.125-0.092-0.212
		c0-0.082,0.03-0.15,0.089-0.205s0.16-0.082,0.301-0.082h1.572c0.141,0,0.242,0.027,0.301,0.082s0.089,0.125,0.089,0.212
		c0,0.082-0.03,0.15-0.089,0.205s-0.16,0.082-0.301,0.082h-0.273L106.057,130.191z"/>
	<path fill="#FFFFFF" d="M112.414,126.787c0-0.524,0.068-1.08,0.205-1.668s0.399-1.267,0.786-2.037s0.67-1.235,0.848-1.395
		c0.055-0.05,0.114-0.075,0.178-0.075c0.082,0,0.151,0.027,0.208,0.082s0.085,0.121,0.085,0.198c0,0.045-0.016,0.096-0.048,0.15
		c-0.501,0.92-0.859,1.754-1.073,2.502s-0.321,1.495-0.321,2.242c0,0.752,0.107,1.501,0.321,2.249s0.572,1.579,1.073,2.495
		c0.032,0.055,0.048,0.105,0.048,0.15c0,0.078-0.028,0.145-0.085,0.202s-0.126,0.085-0.208,0.085c-0.064,0-0.123-0.025-0.178-0.075
		c-0.168-0.155-0.444-0.608-0.827-1.36s-0.647-1.417-0.793-1.996S112.414,127.375,112.414,126.787z"/>
	<path fill="#FFFFFF" d="M121.048,126.793c0,0.524-0.068,1.079-0.205,1.665s-0.399,1.265-0.786,2.037s-0.67,1.236-0.848,1.391
		c-0.055,0.055-0.114,0.082-0.178,0.082c-0.082,0-0.151-0.028-0.208-0.085s-0.085-0.124-0.085-0.202c0-0.045,0.016-0.096,0.048-0.15
		c0.501-0.916,0.859-1.748,1.073-2.495s0.321-1.495,0.321-2.242c0-0.752-0.107-1.501-0.321-2.249s-0.572-1.582-1.073-2.502
		c-0.032-0.055-0.048-0.105-0.048-0.15c0-0.078,0.028-0.144,0.085-0.198s0.126-0.082,0.208-0.082c0.064,0,0.123,0.025,0.178,0.075
		c0.168,0.155,0.444,0.608,0.827,1.36s0.647,1.417,0.793,1.996S121.048,126.206,121.048,126.793z"/>
	<path fill="#FFFFFF" d="M128.157,128.126h1.805l-1.935,3.172c-0.096,0.155-0.172,0.253-0.229,0.294s-0.124,0.062-0.202,0.062
		c-0.109,0-0.201-0.034-0.273-0.103s-0.109-0.15-0.109-0.246c0-0.055,0.014-0.125,0.041-0.212L128.157,128.126z M129.155,124.271
		h0.253c0.255,0,0.473,0.091,0.653,0.273s0.27,0.399,0.27,0.649c0,0.269-0.091,0.492-0.273,0.67s-0.399,0.267-0.649,0.267h-0.253
		c-0.255,0-0.473-0.091-0.653-0.273s-0.27-0.399-0.27-0.649c0-0.269,0.092-0.492,0.277-0.67S128.909,124.271,129.155,124.271z"/>
	<path fill="#FFFFFF" d="M47.322,139.567v-0.191c0-0.137,0.026-0.235,0.079-0.294s0.122-0.089,0.208-0.089s0.156,0.03,0.208,0.089
		s0.079,0.157,0.079,0.294v1.463c0,0.137-0.026,0.235-0.079,0.294s-0.122,0.089-0.208,0.089c-0.082,0-0.149-0.027-0.202-0.082
		s-0.081-0.144-0.085-0.267c-0.023-0.383-0.22-0.727-0.591-1.032s-0.858-0.458-1.459-0.458c-0.633,0-1.137,0.163-1.511,0.489
		s-0.561,0.71-0.561,1.152c0,0.228,0.052,0.435,0.157,0.622s0.244,0.338,0.417,0.455s0.369,0.209,0.588,0.28
		s0.561,0.145,1.025,0.222c0.779,0.127,1.317,0.257,1.613,0.39c0.396,0.178,0.696,0.424,0.899,0.738s0.304,0.686,0.304,1.114
		c0,0.656-0.262,1.216-0.786,1.678s-1.23,0.694-2.119,0.694c-0.998,0-1.795-0.312-2.393-0.937v0.328
		c0,0.137-0.026,0.235-0.079,0.294s-0.122,0.089-0.208,0.089c-0.082,0-0.15-0.03-0.205-0.089s-0.082-0.157-0.082-0.294v-1.586
		c0-0.141,0.026-0.242,0.079-0.301s0.122-0.089,0.208-0.089c0.082,0,0.149,0.027,0.202,0.082s0.081,0.144,0.085,0.267
		c0.023,0.419,0.247,0.801,0.673,1.145s0.999,0.516,1.719,0.516s1.289-0.18,1.706-0.54s0.625-0.786,0.625-1.278
		c0-0.301-0.08-0.568-0.239-0.803s-0.396-0.42-0.711-0.557c-0.219-0.096-0.674-0.203-1.367-0.321
		c-0.953-0.16-1.638-0.403-2.058-0.731s-0.629-0.795-0.629-1.401c0-0.602,0.24-1.119,0.721-1.552s1.115-0.649,1.904-0.649
		C46.053,138.808,46.744,139.061,47.322,139.567z"/>
	<path fill="#FFFFFF" d="M56.879,144.044c0,0.875-0.313,1.623-0.94,2.242s-1.382,0.93-2.266,0.93c-0.893,0-1.652-0.311-2.276-0.933
		s-0.937-1.368-0.937-2.239c0-0.875,0.312-1.624,0.937-2.246s1.383-0.933,2.276-0.933c0.884,0,1.64,0.31,2.266,0.93
		S56.879,143.165,56.879,144.044z M56.298,144.044c0-0.72-0.256-1.333-0.769-1.839s-1.134-0.759-1.863-0.759
		s-1.35,0.254-1.863,0.762s-0.769,1.12-0.769,1.835c0,0.711,0.256,1.322,0.769,1.832s1.134,0.766,1.863,0.766
		s1.35-0.254,1.863-0.762S56.298,144.76,56.298,144.044z"/>
	<path fill="#FFFFFF" d="M64.036,146.991v-0.841c-0.784,0.711-1.631,1.066-2.543,1.066c-0.561,0-0.987-0.153-1.278-0.458
		c-0.378-0.401-0.567-0.868-0.567-1.401v-3.705h-0.772c-0.137,0-0.235-0.027-0.294-0.082s-0.089-0.125-0.089-0.212
		c0-0.082,0.03-0.15,0.089-0.205s0.157-0.082,0.294-0.082h1.347v4.286c0,0.374,0.119,0.681,0.355,0.923s0.533,0.362,0.889,0.362
		c0.934,0,1.791-0.428,2.57-1.285v-3.705h-1.06c-0.137,0-0.235-0.027-0.294-0.082s-0.089-0.125-0.089-0.212
		c0-0.082,0.03-0.15,0.089-0.205s0.157-0.082,0.294-0.082h1.634v5.346h0.485c0.137,0,0.235,0.026,0.294,0.079
		s0.089,0.122,0.089,0.208c0,0.082-0.03,0.15-0.089,0.205s-0.157,0.082-0.294,0.082H64.036z"/>
	<path fill="#FFFFFF" d="M69.785,141.071v1.449c0.748-0.674,1.307-1.108,1.678-1.302s0.714-0.291,1.029-0.291
		c0.342,0,0.66,0.115,0.954,0.345s0.441,0.404,0.441,0.523c0,0.086-0.028,0.158-0.085,0.215s-0.129,0.085-0.215,0.085
		c-0.045,0-0.084-0.008-0.116-0.024s-0.091-0.067-0.178-0.154c-0.16-0.16-0.298-0.269-0.417-0.328s-0.235-0.089-0.349-0.089
		c-0.25,0-0.553,0.1-0.906,0.301s-0.965,0.69-1.835,1.47v3.145h2.543c0.141,0,0.242,0.026,0.301,0.079s0.089,0.122,0.089,0.208
		c0,0.082-0.03,0.15-0.089,0.205s-0.16,0.082-0.301,0.082h-4.505c-0.137,0-0.235-0.026-0.294-0.079s-0.089-0.12-0.089-0.202
		c0-0.078,0.028-0.143,0.085-0.195s0.156-0.079,0.297-0.079h1.388v-4.785h-1.06c-0.137,0-0.235-0.027-0.294-0.082
		s-0.089-0.125-0.089-0.212c0-0.082,0.028-0.15,0.085-0.205s0.156-0.082,0.297-0.082H69.785z"/>
	<path fill="#FFFFFF" d="M81.27,141.652v-0.191c0-0.141,0.027-0.242,0.082-0.301s0.123-0.089,0.205-0.089
		c0.086,0,0.157,0.03,0.212,0.089s0.082,0.16,0.082,0.301v1.299c-0.004,0.141-0.033,0.242-0.085,0.301s-0.122,0.089-0.208,0.089
		c-0.078,0-0.143-0.026-0.195-0.079s-0.083-0.14-0.092-0.263c-0.027-0.324-0.24-0.631-0.639-0.923s-0.936-0.438-1.61-0.438
		c-0.852,0-1.5,0.267-1.941,0.8s-0.663,1.144-0.663,1.832c0,0.743,0.244,1.356,0.731,1.839s1.119,0.725,1.894,0.725
		c0.447,0,0.901-0.082,1.364-0.246s0.881-0.428,1.254-0.793c0.096-0.091,0.18-0.137,0.253-0.137c0.078,0,0.143,0.026,0.195,0.079
		s0.079,0.117,0.079,0.195c0,0.196-0.23,0.444-0.69,0.745c-0.743,0.488-1.57,0.731-2.481,0.731c-0.925,0-1.685-0.295-2.28-0.885
		s-0.892-1.339-0.892-2.246c0-0.925,0.304-1.693,0.913-2.304s1.375-0.916,2.3-0.916C79.934,140.866,80.672,141.128,81.27,141.652z"
		/>
	<path fill="#FFFFFF" d="M90.382,144.167H84.53c0.1,0.743,0.411,1.341,0.933,1.794s1.168,0.68,1.938,0.68
		c0.428,0,0.877-0.071,1.347-0.212s0.852-0.328,1.148-0.561c0.086-0.068,0.162-0.103,0.226-0.103c0.073,0,0.137,0.028,0.191,0.085
		s0.082,0.124,0.082,0.202s-0.037,0.153-0.109,0.226c-0.219,0.228-0.607,0.441-1.166,0.639s-1.131,0.297-1.719,0.297
		c-0.984,0-1.806-0.322-2.464-0.967s-0.988-1.425-0.988-2.341c0-0.834,0.309-1.549,0.926-2.146s1.382-0.896,2.293-0.896
		c0.939,0,1.711,0.307,2.317,0.919S90.391,143.192,90.382,144.167z M89.801,143.586c-0.114-0.633-0.414-1.148-0.899-1.545
		s-1.063-0.595-1.733-0.595s-1.247,0.196-1.729,0.588s-0.784,0.909-0.902,1.552H89.801z"/>
	<path fill="#FFFFFF" d="M106.604,139.779v-0.403c0-0.137,0.026-0.235,0.079-0.294s0.122-0.089,0.208-0.089s0.156,0.03,0.208,0.089
		s0.079,0.157,0.079,0.294v1.593c0,0.141-0.026,0.242-0.079,0.301s-0.122,0.089-0.208,0.089c-0.078,0-0.143-0.027-0.195-0.082
		s-0.083-0.144-0.092-0.267c-0.023-0.383-0.23-0.722-0.622-1.019c-0.529-0.406-1.13-0.608-1.805-0.608
		c-0.442,0-0.859,0.098-1.251,0.294c-0.292,0.141-0.524,0.314-0.697,0.52c-0.301,0.355-0.54,0.75-0.718,1.183
		c-0.127,0.319-0.191,0.679-0.191,1.08v1.005c0,0.857,0.31,1.601,0.93,2.232s1.34,0.947,2.16,0.947c0.492,0,0.933-0.107,1.323-0.321
		s0.767-0.538,1.131-0.971c0.078-0.096,0.164-0.144,0.26-0.144c0.082,0,0.148,0.025,0.198,0.075s0.075,0.114,0.075,0.191
		c0,0.105-0.098,0.264-0.294,0.479c-0.374,0.419-0.794,0.735-1.261,0.947s-0.94,0.318-1.418,0.318c-0.415,0-0.836-0.08-1.265-0.239
		c-0.328-0.123-0.599-0.267-0.813-0.431s-0.478-0.441-0.79-0.831s-0.525-0.75-0.639-1.08s-0.171-0.694-0.171-1.09v-1.169
		c0-0.565,0.151-1.143,0.455-1.733s0.718-1.043,1.244-1.36s1.097-0.475,1.712-0.475C105.104,138.808,105.92,139.132,106.604,139.779
		z"/>
	<path fill="#FFFFFF" d="M115.688,144.044c0,0.875-0.313,1.623-0.94,2.242s-1.382,0.93-2.266,0.93c-0.893,0-1.652-0.311-2.276-0.933
		s-0.937-1.368-0.937-2.239c0-0.875,0.312-1.624,0.937-2.246s1.383-0.933,2.276-0.933c0.884,0,1.64,0.31,2.266,0.93
		S115.688,143.165,115.688,144.044z M115.107,144.044c0-0.72-0.256-1.333-0.769-1.839s-1.134-0.759-1.863-0.759
		s-1.35,0.254-1.863,0.762s-0.769,1.12-0.769,1.835c0,0.711,0.256,1.322,0.769,1.832s1.134,0.766,1.863,0.766
		s1.35-0.254,1.863-0.762S115.107,144.76,115.107,144.044z"/>
	<path fill="#FFFFFF" d="M123.693,138.412v8.005h0.766c0.141,0,0.242,0.026,0.301,0.079s0.089,0.122,0.089,0.208
		c0,0.082-0.03,0.15-0.089,0.205s-0.16,0.082-0.301,0.082h-1.347v-1.142c-0.666,0.912-1.511,1.367-2.536,1.367
		c-0.52,0-1.018-0.138-1.494-0.414s-0.852-0.669-1.128-1.179s-0.414-1.037-0.414-1.579c0-0.547,0.138-1.074,0.414-1.583
		s0.652-0.901,1.128-1.179s0.977-0.417,1.5-0.417c1.002,0,1.846,0.456,2.529,1.367v-3.24h-0.766c-0.141,0-0.242-0.027-0.301-0.082
		s-0.089-0.125-0.089-0.212c0-0.082,0.03-0.15,0.089-0.205s0.16-0.082,0.301-0.082H123.693z M123.112,144.044
		c0-0.729-0.246-1.344-0.738-1.846s-1.078-0.752-1.757-0.752c-0.684,0-1.271,0.25-1.764,0.752s-0.738,1.117-0.738,1.846
		c0,0.725,0.246,1.339,0.738,1.842s1.08,0.755,1.764,0.755c0.679,0,1.265-0.252,1.757-0.755S123.112,144.769,123.112,144.044z"/>
	<path fill="#FFFFFF" d="M132.389,144.167h-5.852c0.1,0.743,0.411,1.341,0.933,1.794s1.168,0.68,1.938,0.68
		c0.428,0,0.877-0.071,1.347-0.212s0.852-0.328,1.148-0.561c0.086-0.068,0.162-0.103,0.226-0.103c0.073,0,0.137,0.028,0.191,0.085
		s0.082,0.124,0.082,0.202s-0.037,0.153-0.109,0.226c-0.219,0.228-0.607,0.441-1.166,0.639s-1.131,0.297-1.719,0.297
		c-0.984,0-1.806-0.322-2.464-0.967s-0.988-1.425-0.988-2.341c0-0.834,0.309-1.549,0.926-2.146s1.382-0.896,2.293-0.896
		c0.939,0,1.711,0.307,2.317,0.919S132.398,143.192,132.389,144.167z M131.808,143.586c-0.114-0.633-0.414-1.148-0.899-1.545
		s-1.063-0.595-1.733-0.595s-1.247,0.196-1.729,0.588s-0.784,0.909-0.902,1.552H131.808z"/>
	<path fill="#FFFFFF" d="M137.618,143.586c0-0.524,0.068-1.08,0.205-1.668s0.399-1.267,0.786-2.037s0.67-1.235,0.848-1.395
		c0.055-0.05,0.114-0.075,0.178-0.075c0.082,0,0.151,0.027,0.208,0.082s0.085,0.121,0.085,0.198c0,0.045-0.016,0.096-0.048,0.15
		c-0.501,0.92-0.859,1.754-1.073,2.502s-0.321,1.495-0.321,2.242c0,0.752,0.107,1.501,0.321,2.249s0.572,1.579,1.073,2.495
		c0.032,0.055,0.048,0.105,0.048,0.15c0,0.078-0.028,0.145-0.085,0.202s-0.126,0.085-0.208,0.085c-0.064,0-0.123-0.025-0.178-0.075
		c-0.168-0.155-0.444-0.608-0.827-1.36s-0.647-1.417-0.793-1.996S137.618,144.174,137.618,143.586z"/>
	<path fill="#FFFFFF" d="M146.252,143.593c0,0.524-0.068,1.079-0.205,1.665s-0.399,1.265-0.786,2.037s-0.67,1.236-0.848,1.391
		c-0.055,0.055-0.114,0.082-0.178,0.082c-0.082,0-0.151-0.028-0.208-0.085s-0.085-0.124-0.085-0.202c0-0.045,0.016-0.096,0.048-0.15
		c0.501-0.916,0.859-1.748,1.073-2.495s0.321-1.495,0.321-2.242c0-0.752-0.107-1.501-0.321-2.249s-0.572-1.582-1.073-2.502
		c-0.032-0.055-0.048-0.105-0.048-0.15c0-0.078,0.028-0.144,0.085-0.198s0.126-0.082,0.208-0.082c0.064,0,0.123,0.025,0.178,0.075
		c0.168,0.155,0.444,0.608,0.827,1.36s0.647,1.417,0.793,1.996S146.252,143.005,146.252,143.593z"/>
	<path fill="#FFFFFF" d="M153.361,144.926h1.805l-1.935,3.172c-0.096,0.155-0.172,0.253-0.229,0.294s-0.124,0.062-0.202,0.062
		c-0.109,0-0.201-0.034-0.273-0.103s-0.109-0.15-0.109-0.246c0-0.055,0.014-0.125,0.041-0.212L153.361,144.926z M154.359,141.071
		h0.253c0.255,0,0.473,0.091,0.653,0.273s0.27,0.399,0.27,0.649c0,0.269-0.091,0.492-0.273,0.67s-0.399,0.267-0.649,0.267h-0.253
		c-0.255,0-0.473-0.091-0.653-0.273s-0.27-0.399-0.27-0.649c0-0.269,0.092-0.492,0.277-0.67S154.113,141.071,154.359,141.071z"/>
	<path fill="#FFFFFF" d="M9.606,160.386c-0.232-0.173-0.387-0.337-0.465-0.492c-0.105-0.201-0.157-0.442-0.157-0.725v-2.461
		c0-0.255-0.075-0.467-0.226-0.636s-0.337-0.262-0.561-0.28c-0.146-0.014-0.239-0.041-0.28-0.082
		c-0.059-0.059-0.089-0.13-0.089-0.212s0.028-0.15,0.085-0.205s0.143-0.082,0.256-0.082c0.365,0,0.666,0.116,0.902,0.349
		c0.324,0.31,0.485,0.693,0.485,1.148v2.461c0,0.25,0.076,0.461,0.229,0.632s0.345,0.266,0.578,0.284
		c0.123,0.014,0.211,0.045,0.263,0.096s0.079,0.119,0.079,0.205c0,0.091-0.026,0.162-0.079,0.212s-0.14,0.082-0.263,0.096
		c-0.237,0.018-0.431,0.113-0.581,0.284s-0.226,0.382-0.226,0.632v2.461c0,0.428-0.137,0.785-0.41,1.07s-0.599,0.427-0.978,0.427
		c-0.114,0-0.199-0.027-0.256-0.082s-0.085-0.125-0.085-0.212c0-0.082,0.027-0.15,0.082-0.205c0.045-0.041,0.141-0.068,0.287-0.082
		c0.228-0.023,0.416-0.12,0.564-0.291s0.222-0.382,0.222-0.632v-2.454c0-0.287,0.045-0.52,0.137-0.697S9.374,160.56,9.606,160.386z"
		/>
	<path fill="#FFFFFF" d="M16.545,161.726h1.805l-1.935,3.172c-0.096,0.155-0.172,0.253-0.229,0.294s-0.124,0.062-0.202,0.062
		c-0.109,0-0.201-0.034-0.273-0.103s-0.109-0.15-0.109-0.246c0-0.055,0.014-0.125,0.041-0.212L16.545,161.726z M17.543,157.871
		h0.253c0.255,0,0.473,0.091,0.653,0.273s0.27,0.399,0.27,0.649c0,0.269-0.091,0.492-0.273,0.67s-0.399,0.267-0.649,0.267h-0.253
		c-0.255,0-0.473-0.091-0.653-0.273s-0.27-0.399-0.27-0.649c0-0.269,0.092-0.492,0.277-0.67S17.297,157.871,17.543,157.871z"/>
	<path fill="#FFFFFF" d="M11.213,193.521H7.405v3.295h0.772c0.137,0,0.235,0.026,0.294,0.079s0.089,0.122,0.089,0.208
		c0,0.082-0.03,0.15-0.089,0.205s-0.157,0.082-0.294,0.082H6.182c-0.137,0-0.235-0.027-0.294-0.082s-0.089-0.123-0.089-0.205
		c0-0.086,0.03-0.156,0.089-0.208s0.157-0.079,0.294-0.079h0.649v-6.85H6.476c-0.141,0-0.242-0.026-0.301-0.079
		s-0.089-0.122-0.089-0.208s0.03-0.156,0.089-0.208s0.16-0.079,0.301-0.079h1.702c0.137,0,0.235,0.026,0.294,0.079
		s0.089,0.122,0.089,0.208s-0.03,0.156-0.089,0.208s-0.157,0.079-0.294,0.079H7.405v2.98h3.808v-2.98h-0.766
		c-0.137,0-0.235-0.026-0.294-0.079s-0.089-0.122-0.089-0.208s0.028-0.156,0.085-0.208s0.156-0.079,0.297-0.079h1.702
		c0.141,0,0.242,0.026,0.301,0.079s0.089,0.122,0.089,0.208s-0.03,0.156-0.089,0.208s-0.16,0.079-0.301,0.079h-0.355v6.85h0.649
		c0.137,0,0.235,0.026,0.294,0.079s0.089,0.122,0.089,0.208c0,0.082-0.03,0.15-0.089,0.205s-0.157,0.082-0.294,0.082h-1.996
		c-0.137,0-0.235-0.027-0.294-0.082s-0.089-0.123-0.089-0.205c0-0.086,0.028-0.156,0.085-0.208s0.156-0.079,0.297-0.079h0.766
		V193.521z"/>
	<path fill="#FFFFFF" d="M19.635,197.391v-0.841c-0.784,0.711-1.631,1.066-2.543,1.066c-0.561,0-0.987-0.153-1.278-0.458
		c-0.378-0.401-0.567-0.868-0.567-1.401v-3.705h-0.772c-0.137,0-0.235-0.027-0.294-0.082s-0.089-0.125-0.089-0.212
		c0-0.082,0.03-0.15,0.089-0.205s0.157-0.082,0.294-0.082h1.347v4.286c0,0.374,0.119,0.681,0.355,0.923s0.533,0.362,0.889,0.362
		c0.934,0,1.791-0.428,2.57-1.285v-3.705h-1.06c-0.137,0-0.235-0.027-0.294-0.082s-0.089-0.125-0.089-0.212
		c0-0.082,0.03-0.15,0.089-0.205s0.157-0.082,0.294-0.082h1.634v5.346h0.485c0.137,0,0.235,0.026,0.294,0.079
		s0.089,0.122,0.089,0.208c0,0.082-0.03,0.15-0.089,0.205s-0.157,0.082-0.294,0.082H19.635z"/>
	<path fill="#FFFFFF" d="M23.456,191.471v0.581c0.488-0.524,0.978-0.786,1.47-0.786c0.296,0,0.556,0.079,0.779,0.236
		s0.41,0.396,0.561,0.714c0.255-0.319,0.514-0.557,0.776-0.714s0.525-0.236,0.79-0.236c0.415,0,0.745,0.134,0.991,0.403
		c0.324,0.346,0.485,0.725,0.485,1.135v4.013h0.485c0.137,0,0.235,0.026,0.294,0.079s0.089,0.122,0.089,0.208
		c0,0.082-0.03,0.15-0.089,0.205s-0.157,0.082-0.294,0.082h-1.06v-4.532c0-0.292-0.089-0.533-0.267-0.725s-0.383-0.287-0.615-0.287
		c-0.209,0-0.431,0.079-0.663,0.236s-0.497,0.466-0.793,0.926v3.808h0.479c0.137,0,0.235,0.026,0.294,0.079s0.089,0.122,0.089,0.208
		c0,0.082-0.03,0.15-0.089,0.205s-0.157,0.082-0.294,0.082h-1.06v-4.491c0-0.305-0.09-0.557-0.27-0.755s-0.382-0.297-0.605-0.297
		c-0.205,0-0.408,0.066-0.608,0.198c-0.278,0.187-0.57,0.508-0.875,0.964v3.808h0.485c0.137,0,0.235,0.026,0.294,0.079
		s0.089,0.122,0.089,0.208c0,0.082-0.03,0.15-0.089,0.205s-0.157,0.082-0.294,0.082h-1.545c-0.137,0-0.235-0.027-0.294-0.082
		s-0.089-0.123-0.089-0.205c0-0.086,0.03-0.156,0.089-0.208s0.157-0.079,0.294-0.079h0.485v-4.765h-0.485
		c-0.137,0-0.235-0.027-0.294-0.082s-0.089-0.125-0.089-0.212c0-0.082,0.03-0.15,0.089-0.205s0.157-0.082,0.294-0.082H23.456z"/>
	<path fill="#FFFFFF" d="M36.123,197.391v-0.827c-0.834,0.702-1.725,1.053-2.673,1.053c-0.688,0-1.226-0.174-1.613-0.523
		s-0.581-0.776-0.581-1.282c0-0.556,0.255-1.042,0.766-1.456s1.255-0.622,2.235-0.622c0.264,0,0.551,0.017,0.861,0.051
		s0.645,0.088,1.005,0.161v-0.93c0-0.314-0.146-0.588-0.438-0.82s-0.729-0.349-1.313-0.349c-0.447,0-1.073,0.13-1.88,0.39
		c-0.146,0.045-0.239,0.068-0.28,0.068c-0.073,0-0.136-0.027-0.188-0.082s-0.079-0.123-0.079-0.205c0-0.078,0.023-0.139,0.068-0.185
		c0.064-0.068,0.321-0.162,0.772-0.28c0.711-0.191,1.249-0.287,1.613-0.287c0.725,0,1.29,0.179,1.695,0.537s0.608,0.762,0.608,1.213
		v3.801h0.766c0.141,0,0.242,0.026,0.301,0.079s0.089,0.122,0.089,0.208c0,0.082-0.03,0.15-0.089,0.205s-0.16,0.082-0.301,0.082
		H36.123z M36.123,194.533c-0.269-0.078-0.554-0.134-0.854-0.171s-0.618-0.055-0.95-0.055c-0.834,0-1.486,0.18-1.955,0.54
		c-0.355,0.269-0.533,0.59-0.533,0.964c0,0.346,0.136,0.638,0.407,0.875s0.667,0.355,1.186,0.355c0.497,0,0.958-0.099,1.384-0.297
		s0.865-0.514,1.316-0.947V194.533z"/>
	<path fill="#FFFFFF" d="M41.018,191.471v0.868c0.401-0.406,0.763-0.686,1.087-0.841s0.688-0.232,1.094-0.232
		c0.438,0,0.836,0.093,1.196,0.28c0.255,0.137,0.486,0.363,0.694,0.68s0.311,0.642,0.311,0.974v3.616h0.485
		c0.137,0,0.235,0.026,0.294,0.079s0.089,0.122,0.089,0.208c0,0.082-0.03,0.15-0.089,0.205s-0.157,0.082-0.294,0.082h-1.538
		c-0.141,0-0.242-0.027-0.301-0.082s-0.089-0.123-0.089-0.205c0-0.086,0.03-0.156,0.089-0.208s0.16-0.079,0.301-0.079h0.479v-3.521
		c0-0.406-0.148-0.749-0.444-1.029s-0.693-0.42-1.189-0.42c-0.378,0-0.707,0.076-0.984,0.229s-0.674,0.532-1.189,1.138v3.603h0.649
		c0.137,0,0.235,0.026,0.294,0.079s0.089,0.122,0.089,0.208c0,0.082-0.03,0.15-0.089,0.205s-0.157,0.082-0.294,0.082h-1.873
		c-0.137,0-0.235-0.027-0.294-0.082s-0.089-0.123-0.089-0.205c0-0.086,0.03-0.156,0.089-0.208s0.157-0.079,0.294-0.079h0.649v-4.765
		h-0.485c-0.137,0-0.235-0.027-0.294-0.082s-0.089-0.125-0.089-0.212c0-0.082,0.03-0.15,0.089-0.205s0.157-0.082,0.294-0.082H41.018
		z"/>
	<path fill="#FFFFFF" d="M57.062,191.471v0.581c0.488-0.524,0.978-0.786,1.47-0.786c0.296,0,0.556,0.079,0.779,0.236
		s0.41,0.396,0.561,0.714c0.255-0.319,0.514-0.557,0.776-0.714s0.525-0.236,0.79-0.236c0.415,0,0.745,0.134,0.991,0.403
		c0.324,0.346,0.485,0.725,0.485,1.135v4.013h0.485c0.137,0,0.235,0.026,0.294,0.079s0.089,0.122,0.089,0.208
		c0,0.082-0.03,0.15-0.089,0.205s-0.157,0.082-0.294,0.082h-1.06v-4.532c0-0.292-0.089-0.533-0.267-0.725s-0.383-0.287-0.615-0.287
		c-0.209,0-0.431,0.079-0.663,0.236s-0.497,0.466-0.793,0.926v3.808h0.479c0.137,0,0.235,0.026,0.294,0.079s0.089,0.122,0.089,0.208
		c0,0.082-0.03,0.15-0.089,0.205s-0.157,0.082-0.294,0.082h-1.06v-4.491c0-0.305-0.09-0.557-0.27-0.755s-0.382-0.297-0.605-0.297
		c-0.205,0-0.408,0.066-0.608,0.198c-0.278,0.187-0.57,0.508-0.875,0.964v3.808h0.485c0.137,0,0.235,0.026,0.294,0.079
		s0.089,0.122,0.089,0.208c0,0.082-0.03,0.15-0.089,0.205s-0.157,0.082-0.294,0.082h-1.545c-0.137,0-0.235-0.027-0.294-0.082
		s-0.089-0.123-0.089-0.205c0-0.086,0.03-0.156,0.089-0.208s0.157-0.079,0.294-0.079h0.485v-4.765h-0.485
		c-0.137,0-0.235-0.027-0.294-0.082s-0.089-0.125-0.089-0.212c0-0.082,0.03-0.15,0.089-0.205s0.157-0.082,0.294-0.082H57.062z"/>
	<path fill="#FFFFFF" d="M71.185,194.567h-5.852c0.1,0.743,0.411,1.341,0.933,1.794s1.168,0.68,1.938,0.68
		c0.428,0,0.877-0.071,1.347-0.212s0.852-0.328,1.148-0.561c0.086-0.068,0.162-0.103,0.226-0.103c0.073,0,0.137,0.028,0.191,0.085
		s0.082,0.124,0.082,0.202s-0.037,0.153-0.109,0.226c-0.219,0.228-0.607,0.441-1.166,0.639s-1.131,0.297-1.719,0.297
		c-0.984,0-1.806-0.322-2.464-0.967s-0.988-1.425-0.988-2.341c0-0.834,0.309-1.549,0.926-2.146s1.382-0.896,2.293-0.896
		c0.939,0,1.711,0.307,2.317,0.919S71.194,193.592,71.185,194.567z M70.604,193.986c-0.114-0.633-0.414-1.148-0.899-1.545
		s-1.063-0.595-1.733-0.595s-1.247,0.196-1.729,0.588s-0.784,0.909-0.902,1.552H70.604z"/>
	<path fill="#FFFFFF" d="M88.015,192.64h-6.262c-0.137,0-0.235-0.027-0.294-0.082s-0.089-0.125-0.089-0.212
		c0-0.082,0.03-0.15,0.089-0.205s0.157-0.082,0.294-0.082h6.262c0.137,0,0.235,0.027,0.294,0.082s0.089,0.125,0.089,0.212
		c0,0.082-0.03,0.15-0.089,0.205S88.151,192.64,88.015,192.64z M88.015,194.697h-6.262c-0.137,0-0.235-0.026-0.294-0.079
		s-0.089-0.122-0.089-0.208s0.03-0.156,0.089-0.208s0.157-0.079,0.294-0.079h6.262c0.137,0,0.235,0.026,0.294,0.079
		s0.089,0.122,0.089,0.208s-0.03,0.156-0.089,0.208S88.151,194.697,88.015,194.697z"/>
	<path fill="#FFFFFF" d="M104.496,197.391h-0.738l-4.231-7.157v6.583h1.06c0.141,0,0.242,0.026,0.301,0.079s0.089,0.122,0.089,0.208
		c0,0.082-0.03,0.15-0.089,0.205s-0.16,0.082-0.301,0.082h-2.112c-0.141,0-0.242-0.027-0.301-0.082s-0.089-0.123-0.089-0.205
		c0-0.086,0.03-0.156,0.089-0.208s0.16-0.079,0.301-0.079h0.479v-6.85H98.18c-0.137,0-0.235-0.026-0.294-0.079
		s-0.089-0.122-0.089-0.208s0.03-0.156,0.089-0.208s0.157-0.079,0.294-0.079h1.504l4.238,7.171v-6.597h-1.06
		c-0.137,0-0.235-0.026-0.294-0.079s-0.089-0.122-0.089-0.208s0.028-0.156,0.085-0.208s0.156-0.079,0.297-0.079h2.119
		c0.137,0,0.235,0.026,0.294,0.079s0.089,0.122,0.089,0.208s-0.03,0.156-0.089,0.208s-0.157,0.079-0.294,0.079h-0.485V197.391z"/>
	<path fill="#FFFFFF" d="M113.191,194.567h-5.852c0.1,0.743,0.411,1.341,0.933,1.794s1.168,0.68,1.938,0.68
		c0.428,0,0.877-0.071,1.347-0.212s0.852-0.328,1.148-0.561c0.086-0.068,0.162-0.103,0.226-0.103c0.073,0,0.137,0.028,0.191,0.085
		s0.082,0.124,0.082,0.202s-0.037,0.153-0.109,0.226c-0.219,0.228-0.607,0.441-1.166,0.639s-1.131,0.297-1.719,0.297
		c-0.984,0-1.806-0.322-2.464-0.967s-0.988-1.425-0.988-2.341c0-0.834,0.309-1.549,0.926-2.146s1.382-0.896,2.293-0.896
		c0.939,0,1.711,0.307,2.317,0.919S113.201,193.592,113.191,194.567z M112.61,193.986c-0.114-0.633-0.414-1.148-0.899-1.545
		s-1.063-0.595-1.733-0.595s-1.247,0.196-1.729,0.588s-0.784,0.909-0.902,1.552H112.61z"/>
	<path fill="#FFFFFF" d="M120.465,197.391l-0.711,0.007l-1.265-3.691l-1.258,3.691l-0.711-0.007l-1.189-5.339h-0.28
		c-0.137,0-0.235-0.027-0.294-0.082s-0.089-0.125-0.089-0.212c0-0.082,0.03-0.15,0.089-0.205s0.157-0.082,0.294-0.082h1.579
		c0.137,0,0.235,0.027,0.294,0.082s0.089,0.125,0.089,0.212c0,0.082-0.03,0.15-0.089,0.205s-0.157,0.082-0.294,0.082h-0.731
		l1.019,4.553l1.224-3.637h0.684l1.258,3.637l0.978-4.553h-0.725c-0.137,0-0.236-0.027-0.297-0.082s-0.092-0.125-0.092-0.212
		c0-0.082,0.03-0.15,0.089-0.205s0.16-0.082,0.301-0.082h1.572c0.141,0,0.242,0.027,0.301,0.082s0.089,0.125,0.089,0.212
		c0,0.082-0.03,0.15-0.089,0.205s-0.16,0.082-0.301,0.082h-0.273L120.465,197.391z"/>
	<path fill="#FFFFFF" d="M138.102,197.391h-0.738l-4.231-7.157v6.583h1.06c0.141,0,0.242,0.026,0.301,0.079s0.089,0.122,0.089,0.208
		c0,0.082-0.03,0.15-0.089,0.205s-0.16,0.082-0.301,0.082h-2.112c-0.141,0-0.242-0.027-0.301-0.082s-0.089-0.123-0.089-0.205
		c0-0.086,0.03-0.156,0.089-0.208s0.16-0.079,0.301-0.079h0.479v-6.85h-0.772c-0.137,0-0.235-0.026-0.294-0.079
		s-0.089-0.122-0.089-0.208s0.03-0.156,0.089-0.208s0.157-0.079,0.294-0.079h1.504l4.238,7.171v-6.597h-1.06
		c-0.137,0-0.235-0.026-0.294-0.079s-0.089-0.122-0.089-0.208s0.028-0.156,0.085-0.208s0.156-0.079,0.297-0.079h2.119
		c0.137,0,0.235,0.026,0.294,0.079s0.089,0.122,0.089,0.208s-0.03,0.156-0.089,0.208s-0.157,0.079-0.294,0.079h-0.485V197.391z"/>
	<path fill="#FFFFFF" d="M143.994,191.471v5.346h2.256c0.141,0,0.242,0.026,0.301,0.079s0.089,0.122,0.089,0.208
		c0,0.082-0.03,0.15-0.089,0.205s-0.16,0.082-0.301,0.082h-5.086c-0.137,0-0.235-0.027-0.294-0.082s-0.089-0.123-0.089-0.205
		c0-0.086,0.03-0.156,0.089-0.208s0.157-0.079,0.294-0.079h2.256v-4.765h-1.675c-0.137,0-0.236-0.027-0.297-0.082
		s-0.092-0.123-0.092-0.205c0-0.086,0.03-0.157,0.089-0.212s0.16-0.082,0.301-0.082H143.994z M143.974,188.524v1.483h-0.848v-1.483
		H143.974z"/>
	<path fill="#FFFFFF" d="M154.487,192.052v-0.191c0-0.141,0.027-0.242,0.082-0.301s0.123-0.089,0.205-0.089
		c0.086,0,0.157,0.03,0.212,0.089s0.082,0.16,0.082,0.301v1.299c-0.004,0.141-0.033,0.242-0.085,0.301s-0.122,0.089-0.208,0.089
		c-0.078,0-0.143-0.026-0.195-0.079s-0.083-0.14-0.092-0.263c-0.027-0.324-0.24-0.631-0.639-0.923s-0.936-0.438-1.61-0.438
		c-0.852,0-1.5,0.267-1.941,0.8s-0.663,1.144-0.663,1.832c0,0.743,0.244,1.356,0.731,1.839s1.119,0.725,1.894,0.725
		c0.447,0,0.901-0.082,1.364-0.246s0.881-0.428,1.254-0.793c0.096-0.091,0.18-0.137,0.253-0.137c0.078,0,0.143,0.026,0.195,0.079
		s0.079,0.117,0.079,0.195c0,0.196-0.23,0.444-0.69,0.745c-0.743,0.488-1.57,0.731-2.481,0.731c-0.925,0-1.685-0.295-2.28-0.885
		s-0.892-1.339-0.892-2.246c0-0.925,0.304-1.693,0.913-2.304s1.375-0.916,2.3-0.916C153.152,191.266,153.89,191.528,154.487,192.052
		z"/>
	<path fill="#FFFFFF" d="M159.327,194.834v2.557h-1.347c-0.137,0-0.234-0.027-0.294-0.082s-0.089-0.123-0.089-0.205
		c0-0.086,0.029-0.156,0.089-0.208s0.157-0.079,0.294-0.079h0.772v-7.424h-0.772c-0.137,0-0.234-0.027-0.294-0.082
		s-0.089-0.125-0.089-0.212c0-0.082,0.029-0.15,0.089-0.205s0.157-0.082,0.294-0.082h1.347v5.291l2.44-2.051h-0.294
		c-0.137,0-0.234-0.027-0.294-0.082s-0.089-0.123-0.089-0.205c0-0.086,0.029-0.157,0.089-0.212s0.157-0.082,0.294-0.082h1.839
		c0.142,0,0.241,0.027,0.301,0.082s0.089,0.125,0.089,0.212c0,0.082-0.029,0.15-0.089,0.205s-0.159,0.082-0.301,0.082h-0.663
		l-2.242,1.873l2.837,2.892h0.663c0.142,0,0.241,0.026,0.301,0.079s0.089,0.122,0.089,0.208c0,0.082-0.029,0.15-0.089,0.205
		s-0.159,0.082-0.301,0.082h-1.859c-0.137,0-0.234-0.027-0.294-0.082s-0.089-0.123-0.089-0.205c0-0.086,0.029-0.156,0.089-0.208
		s0.157-0.079,0.294-0.079h0.403l-2.468-2.536L159.327,194.834z"/>
	<path fill="#FFFFFF" d="M167.77,195.326h1.805l-1.935,3.172c-0.096,0.155-0.172,0.253-0.229,0.294
		c-0.057,0.041-0.124,0.062-0.201,0.062c-0.109,0-0.2-0.034-0.273-0.103s-0.109-0.15-0.109-0.246c0-0.055,0.014-0.125,0.041-0.212
		L167.77,195.326z M168.768,191.471h0.253c0.255,0,0.473,0.091,0.653,0.273c0.18,0.182,0.27,0.399,0.27,0.649
		c0,0.269-0.091,0.492-0.273,0.67s-0.398,0.267-0.649,0.267h-0.253c-0.255,0-0.473-0.091-0.652-0.273
		c-0.181-0.182-0.271-0.399-0.271-0.649c0-0.269,0.093-0.492,0.276-0.67C168.307,191.56,168.521,191.471,168.768,191.471z"/>
</g>
</svg>
