<?xml version="1.0" encoding="utf-8"?>
<!-- Generator: Adobe Illustrator 16.0.0, SVG Export Plug-In . SVG Version: 6.00 Build 0)  -->
<!DOCTYPE svg PUBLIC "-//W3C//DTD SVG 1.1//EN" "http://www.w3.org/Graphics/SVG/1.1/DTD/svg11.dtd">
<svg version="1.1" xmlns="http://www.w3.org/2000/svg" xmlns:xlink="http://www.w3.org/1999/xlink" x="0px" y="0px" width="800px"
	 height="800px" viewBox="0 0 800 800" enable-background="new 0 0 800 800" xml:space="preserve">
<g id="Layer_1">
</g>
<g id="Layer_2">
	<g>
		<rect x="407" y="549" width="294" height="4"/>
		<path d="M-44,857h901V-44H-44V857z M-43-43h899v899H-43V-43z"/>
		<rect x="112" y="549" width="294" height="4"/>
		<path d="M204,232.617v0.1V232.617z"/>
		<path d="M349.593,361.853c-0.074,0.025-0.13,0.071-0.197,0.105c-9.811,1.238-17.349,6.149-18.507,16.625
			c-0.897,8.113,3.305,17.786,10.582,21.782c10.307,5.659,19.562-6.526,21.356-15.506
			C364.173,378.126,360.312,358.187,349.593,361.853z M358.531,384.871c-1.438,7.329-8.919,16.039-16.479,10.836
			c-4.998-3.44-7.276-10.613-7.16-16.388c0.167-8.276,7.172-13.355,14.784-14.482C357.304,366.994,359.824,378.281,358.531,384.871z
			"/>
		<path d="M478.027,367.058c-9.17-8.176-20.271,6.017-24.244,13.203c-4.476,8.095-6.081,20.203,5.51,22.806
			C476.681,406.971,500.303,374.194,478.027,367.058z M457.79,382.603c3.28-6.441,10.851-16.532,19.224-13.644
			c6.634,5.113,6.993,11.805,2.572,18.567c-3.705,5.666-10.664,11.08-17.678,11.147C452.194,398.766,455.081,387.923,457.79,382.603
			z"/>
		<path d="M768.979,412.878c-2.302-0.433-4.361-3.288-5.877-4.907c-2.07-2.213-3.98-4.575-6.138-6.706
			c-1.414-1.396-2.967-2.796-4.622-4.114c4.138,0.642,8.284,1.247,12.411,1.966c1.777,0.31,3.994-1.172,3.232-3.233
			c-4.425-11.972-16.307-17.319-27.614-21.254c-5.033-1.752-10.021-3.598-14.921-5.699c-0.672-0.288-1.329-0.607-1.981-0.937
			c6.484-8.24,18.521-10.592,22.28-21.236c0.657-1.861-1.026-3.484-2.749-3.608c-13.711-0.992-30.481-0.308-41.253,9.348
			c-13.044-9.456-25.865-19.217-40.038-26.967c-15.413-8.428-32.262-14.136-48.284-21.268c-16.029-7.135-29.979-17.592-45.59-25.453
			c-14.572-7.338-30.515-13.458-46.729-16.12c0.481-1.27-0.065-2.763-1.54-3.194c-6.435-1.881-12.974-3.438-19.485-3.721
			c1.625-3.677,3.07-7.53,4.591-11.237c2.438-5.945,3.007-12.432,3.827-18.761c0.987-7.614,1.647-15.227,1.982-22.896
			c0.169-3.87,0.118-7.759,0.638-11.605c0.226-1.673,0.697-3.072,0.902-4.538c6.391-1.387,13.053-3.277,17.996-7.119
			c5.613-4.362,5.29-13.412,5.192-19.801c-0.123-8.094-0.937-17.359-4.705-24.667c-2.526-4.899-8.878-6.622-14.326-7.447
			c1.161-4.521,2.074-9.484,1.905-14.276c1.285,0.134,2.641-0.481,3.008-2.007c2.71-11.257,7.154-22.446,5.357-34.188
			c-0.408-2.668-4.032-2.531-5.255-0.687c-3.4,5.128-6.709,10.75-11.218,15.056c-3.08-11.309-6.602-22.39-6.758-34.271
			c-0.033-2.555-3.083-3.743-4.908-2.033c-1.216,1.139-2.439,2.27-3.664,3.4c-0.733,0.039-1.44,0.425-1.901,1.308
			c-0.164,0.314-0.35,0.61-0.519,0.92c-2.476,2.274-4.95,4.551-7.402,6.849c-0.489-9.505-0.958-19.016-2.492-28.417
			c-0.317-1.944-2.813-2.13-4.042-1.067c-0.946,0.818-1.889,1.64-2.833,2.459c-0.778,0.155-1.465,0.656-1.725,1.498
			c-6.099,5.311-12.139,10.687-17.936,16.331c-1.494,1.455-2.95,2.94-4.374,4.454c-2.903-6.878-5.262-14.39-5.759-21.703
			c-0.117-1.722-1.604-3.013-3.358-2.558c-10.728,2.784-16.692,12.841-23.659,20.582c-2.331,2.59-4.517,5.299-6.7,8.01
			c-0.785-1.887-1.711-3.729-2.753-5.533c-1.795-8.818-3.494-17.65-7.482-25.83c-0.639-1.31-2.773-1.276-3.422,0
			c-1.941,3.818-4.2,7.469-6.338,11.185c-1.447,1.587-2.819,3.234-4.13,4.932c-1.498-2.51-3.111-4.899-4.692-7.11
			c-6.016-8.409-14.23-17.39-24.46-20.427c-1.229-0.365-2.84,0.426-3.088,1.753c-1.068,5.708-5.902,11.975-6.197,18.031
			c-6.87,8.39-14.656,17.167-17.771,27.144c-4.365-7.291-7.472-15.453-11.928-22.684c-0.754-1.224-2.615-1.606-3.647-0.47
			c-2.12,2.333-4.098,4.812-5.973,7.385c-0.71-1.895-3.291-2.111-4.6-0.372c-10.975,14.574-23.751,34.053-17.022,53.154
			c0.314,0.892,1.177,1.345,2.011,1.364c-1.572,5.928-2.267,12.195-3.322,18.116c-0.021,0.117-0.019,0.23-0.007,0.341
			c-0.696,0.122-1.393,0.244-2.083,0.38c-0.748,0.148-1.273,0.729-1.539,1.407c-6.121,4.926-9.222,14.007-11.257,21.275
			c-2.039,7.282-2.528,15.517,3.363,21.074c3.542,3.34,8.201,5.531,13.025,7.19c0.403,1.296,0.921,2.561,1.377,3.931
			c1.091,3.277,1.733,6.699,2.299,10.099c1.143,6.862,1.421,13.85,2.379,20.738c1.04,7.47,2.44,14.867,3.92,22.261
			c0.743,3.711,1.502,7.42,2.293,11.122c0.514,2.402,0.771,4.91,1.729,7.123c-2.261,0.253-4.454,0.873-6.459,1.972
			c-0.295,0.162-0.493,0.371-0.625,0.6c-2.66,0.226-5.328,1.32-6.729,3.246c-0.434,0.597-0.747,1.236-0.978,1.902
			c-1.112,0.083-1.21,0.28-1.179,0.368c-0.037-0.034-0.105-0.087-0.241-0.172c-0.556-0.35-1.205-0.288-1.815-0.173
			c-4.373,0.827-8.657,1.939-12.894,3.297c-7.924,2.54-15.474,6.202-22.751,10.199c-15.043,8.265-28.935,18.447-44.487,25.808
			c-8.543,4.043-17.714,6.371-26.391,10.083c-9.282,3.971-18.15,8.723-26.791,13.932c-7.876,4.748-15.712,9.666-23.401,14.712
			c-6.185,4.06-12.077,8.578-16.704,14.328c-2.57-1.405-5.567-2.29-8.088-3.811c-3.889-2.347-7.577-4.895-11.752-6.733
			c-8.313-3.66-18.484-2.901-27.14-1.013c-0.501,0.109-0.516,0.926,0,1.024c0.337,0.064,0.672,0.113,1.008,0.167
			c1.012,4.846,5.241,9.49,8.017,13.452c2.438,3.479,5.224,6.377,8.472,8.906c-2.322,0.711-4.635,1.816-6.263,2.456
			c-6.053,2.379-11.85,5.413-17.404,8.785c-5.254,3.19-10.229,6.9-14.415,11.421c-2.201,2.375-5.395,6.295-4.558,9.805
			c0.122,0.512,0.934,0.661,1.171,0.153c0.093-0.199,0.197-0.386,0.293-0.581c5.221,1.98,10.032,2.135,15.571,1.498
			c0.959-0.11,1.953-0.225,2.956-0.345c-0.887,0.452-1.721,0.891-2.469,1.279c-5.73,2.975-10.617,7.751-14.239,13.046
			c-0.016,0.022-0.023,0.047-0.038,0.069c-0.765,0.035-0.967,1.258-0.162,1.406c0.063,0.012,0.125,0.019,0.188,0.03
			c0.498,0.795,1.693,1.221,2.431,0.377c5.376,0.711,10.73,0.593,16.155-0.044c3.216-0.378,7.113-0.764,10.788-1.588
			c-7.405,6.053-13.418,14.25-19.068,21.651c-0.269,0.352,0.237,0.776,0.577,0.577c0.821-0.48,1.591-1.023,2.339-1.59
			c9.123,3.295,20.052,1.976,28.664-2.926c-0.497,0.749-0.977,1.468-1.436,2.12c-3.025,4.301-5.998,9.375-6.468,14.698
			c-0.075,0.846,1.078,0.831,1.351,0.183c0.121-0.288,0.247-0.568,0.369-0.854c-0.043,0.751,0.319,1.497,1.19,1.616
			c36.015,4.95,69.495-15.003,100.65-30.33c17.151-8.438,34.139-17.224,50.289-27.475c7.442-4.724,14.769-9.754,21.646-15.274
			c3.003-2.41,5.792-5.081,8.762-7.533c3.411-2.818,8.437-6.814,13.078-7.445c0.225,13.617,4.218,27.607,8.464,41.256
			c4.559,14.653,7.286,29.671,11.751,44.338c4.642,15.247,11.771,29.598,17.088,44.607c4.316,12.187,12.419,23.535,13.93,36.577H79
			v4h327v-4h-78.441c-1.155-11.575-7.295-22.019-11.9-32.489c-3.019-6.863-5.337-14.061-8.171-21.009
			c-3.142-7.701-6.347-15.369-9.134-23.209c-3.266-9.188-5.369-18.623-7.626-28.038c0.608,0.327,1.369,0.343,2.156-0.194
			c11.437-7.803,17.828-21.445,19.399-34.92c0.993-8.513,0.711-17.373,0.865-25.945c0.137-7.608,0.11-15.218,0.089-22.826
			c-0.048-17.508-7.756-32.707-13.02-49.087c-2.005-6.242-4.396-11.94-6.901-17.994c-1.149-2.779-2.201-5.736-2.158-8.775
			c0.048-3.425,6.433-4.819,9.172-4.767c0.603,0.012,0.918-0.716,0.629-1.162c4.375-1.021,9.176,0.09,13.338,1.552
			c2.993,1.051,5.408,2.7,7.487,4.719c0.158,0.325,0.406,0.594,0.747,0.76c2.327,2.449,4.242,5.357,6.123,8.373
			c7.738,12.409,12.993,26.305,19.607,39.312c2.714,5.337,3.826,11.448,6.226,16.94c2.167,4.958,4.888,9.793,7.389,14.591
			c5.608,10.76,13.321,20.067,19.198,30.63c4.389,7.888,8.52,16.936,16.051,22.38c7.9,5.712,18.173,6.134,26.825,1.827
			c9.702-4.83,15.292-16.301,20.986-24.926c7.995-12.112,15.89-24.256,20.28-38.206c3.36-10.675,5.518-21.702,8.278-32.538
			c1.968-7.726,3.613-14.574,4.156-22.531c0.573-8.386,1.149-16.03,9.872-19.345c8.688-3.301,18.438-1.466,27.253,0.991
			c-7.121,9.367-11.255,21.315-14.312,32.473c-3.776,13.789-4.803,28.5-4.955,42.739c-0.146,13.753,1.253,27.561,5.3,40.731
			c4.194,13.649,12.335,25.179,20.396,36.783c0.562,0.808,1.345,1.151,2.127,1.178c-2.032,7.223-4.191,14.412-6.324,21.597
			c-4.67,15.732-8.203,31.686-12.393,47.537c-4.124,15.601-10.147,29.606-19.316,42.848H407v4h327v-4H487.895
			c8.826-9.304,13.782-22.046,17.675-34.027c4.952-15.242,7.981-31.07,12.444-46.46c4.678-16.127,9.918-32.094,14.005-48.388
			c1.774-7.072,3.507-14.342,4.108-21.623c0.225-2.723,0.367-5.451,0.614-8.172c0.106-1.179,0.259-2.35,0.457-3.517
			c0.084-0.497,0.929-2.402,0.084-1.877c0.716-0.444,0.968-1.3,0.823-2.05c18.022,0.423,28.668,18.228,42.193,27.615
			c8.079,5.607,16.883,9.753,25.761,13.91c9.345,4.376,18.362,9.22,27.228,14.496c8.42,5.011,16.804,10.171,25.937,13.797
			c9.369,3.721,19.43,5.349,28.828,9.026c14.648,5.733,30.532,11.474,46.442,11.692c1.707,0.023,3.212-1.779,2.641-3.467
			c-2.223-6.564-6.528-12.401-9.244-18.774c2.134,0.846,4.329,1.441,6.042,1.935c6.773,1.949,13.777,2.778,20.657,4.224
			c2.576,0.542,4.494-2.456,2.59-4.448c-3.406-3.566-4.465-9.156-7.401-13.191c-0.474-0.65-0.971-1.282-1.479-1.906
			c6.44,0.839,13.309-0.051,19.99,0.172C771.176,418.061,771.875,413.423,768.979,412.878z M133.368,436.851
			c-17.18,7.234-34.981,11.362-53.702,10.144c-0.445-0.029-0.807,0.132-1.079,0.392c2.037-4.555,4.33-8.735,7.263-12.887
			c2.292-3.245,6.135-6.527,7.894-10.257c0.015-0.02,0.031-0.038,0.045-0.058c0.196-0.264,0.286-0.526,0.307-0.777
			c0.071-0.188,0.144-0.376,0.202-0.566c0.171-0.556-0.437-0.974-0.919-0.757c-0.733-0.484-1.845-0.518-2.504,0.397
			c-7.216,10.018-22.357,13.948-34.408,12.255c3.131-2.582,5.719-5.803,8.407-8.858c4.565-5.19,9.418-9.941,15.596-13.169
			c1.473-0.769,0.696-2.73-0.615-2.937c-0.21-0.208-0.494-0.355-0.855-0.372c-5.415-0.251-11.355,2.428-16.705,3.447
			c-5.26,1.002-10.544,1.511-15.867,1.688c3.519-3.935,7.152-7.401,11.856-10.116c2.53-1.461,5.271-2.518,8.02-3.482
			c2.573-0.903,5.262-1.136,7.248-3.065c0.369-0.358,0.248-0.966-0.167-1.206c0.472-0.691-0.147-1.818-1.041-1.873
			c-4.936-0.3-10.063,1.64-14.9,2.554c-5.401,1.02-11.067,1.31-16.562,1.013c4.325-8.211,11.838-13.21,19.834-17.936
			c4.99-2.949,10.243-5.493,15.635-7.615c3.36-1.323,8.9-1.619,11.643-3.83c0.663-0.534,0.484-1.831-0.282-2.184
			c-1.113-0.513-2.487-0.523-3.939-0.27c-3.236-3.456-6.023-7.354-8.671-11.26c-2.187-3.225-4.014-7.478-6.971-10.211
			c8.245,0.789,16.204-0.396,24.09,3.792c4.396,2.335,10.85,8.646,16.666,9.832c0.172,0.788,1.287,1.373,1.909,0.617
			c0.124-0.151,0.259-0.292,0.384-0.442c0.513-0.032,1.019-0.111,1.514-0.257c0.847-0.25,1.355-1.494,0.617-2.152
			c10.897-11.685,26.209-19.362,39.707-27.484c8.5-5.114,17.312-9.729,26.461-13.57c6.908-2.899,14.092-4.989,21.07-7.682
			c0.1,0.131,0.219,0.259,0.361,0.383c4.882,4.233,10.116,7.952,14.372,12.86c5.104,5.885,7.789,13.618,9.657,21.048
			c2.06,8.193,2.695,16.681,3.004,25.096c0.136,3.71,0.146,7.426,0.151,11.138c0.005,3.373-0.456,6.97,0.27,10.282
			c-13.779,8.678-28.236,16.302-42.771,23.602C168.404,420.751,151.102,429.383,133.368,436.851z M306.311,322.995
			c2.205,7.325,2.111,14.821,2.089,22.394c-0.023,8.152-0.02,16.308-0.292,24.457c-0.319,9.516,0.138,19.096-2.652,28.298
			c-2.574,8.489-7.749,16.573-14.985,21.789c-0.27,0.194-0.473,0.421-0.634,0.66c-1.057-4.285-2.179-8.559-3.496-12.794
			c-4.801-15.442-9.96-30.798-9.965-46.798c0-1.836-2.313-1.981-2.692-0.445c-6.983,0.363-11.561,2.74-17.093,7.237
			c-6.903,5.612-13.646,11.105-21.055,16.078c-0.935,0.627-1.885,1.23-2.826,1.846c0.157-2.484-0.059-5.047-0.057-7.483
			c0.004-4.333-0.063-8.664-0.224-12.993c-0.306-8.229-1.257-16.422-3.108-24.449c-1.635-7.086-4.41-13.916-8.469-19.956
			c-4.067-6.053-9.969-10.563-15.64-15.041c14.726-6.513,27.95-15.898,41.812-23.983c7.3-4.258,14.854-8.045,22.791-10.968
			c3.98-1.466,8.073-2.594,12.204-3.542c0.983-0.215,1.968-0.417,2.957-0.606c-0.084-0.059-0.155-0.107-0.227-0.157
			c0.783,0.337,1.79,0.262,2.657,0.188c0.24,3.061,1.472,6.254,2.408,8.783C295.607,291.175,301.488,306.968,306.311,322.995z
			 M524.545,137.896c4.527,6.488,4.411,17.773,4.366,25.302c-0.021,3.358-0.06,7.362-1.621,10.427
			c-1.448,2.842-6.744,4.117-9.457,5.021c-9.201,3.067-18.929,4.609-28.457,6.28c-3.744,0.657-7.493,1.292-11.232,1.977
			c-5.796,1.061-12.337,2.919-17.762-0.224c-3.259-1.888-2.337-8.582-2.554-11.679c-0.218-3.098-0.774-6.225-1.148-9.309
			c-0.64-5.278-1.248-10.948-3.177-15.943c0.446-0.183,0.88-0.488,1.271-0.973c4.423-5.467,12.687-7.864,19.108-9.872
			c7.37-2.304,15.01-3.874,22.706-4.678c-0.272,0.272-0.534,0.558-0.782,0.853c-0.519,0.167-1.021,0.398-1.503,0.703
			c-5.072,3.205-0.988,9.731,1.743,12.96c5.323,6.29,12.973,3.375,15.473-3.648c0.396-1.112,0.609-2.331,0.608-3.542
			c2.063-1.154,1.356-4.046-0.23-5.227c-1.628-1.212-3.246-2.126-4.971-2.759C512.94,133.397,521.614,133.698,524.545,137.896z
			 M508.551,102.753c0.113,0.126,0.225,0.253,0.333,0.382c-0.191-0.036-0.382-0.08-0.575-0.113
			C508.396,102.938,508.477,102.848,508.551,102.753z M478.383,46.178c0.12,1.094,0.223,2.189,0.32,3.286
			c-0.057,0.006-0.114,0.005-0.171,0.015c-0.052-0.216-0.096-0.432-0.152-0.647C478.382,47.947,478.382,47.063,478.383,46.178z
			 M466.178,102.815c-0.007,0.04-0.009,0.079-0.014,0.118c-0.079-0.001-0.158-0.003-0.238-0.005
			C466.013,102.896,466.095,102.856,466.178,102.815z M445.13,61.597c0.083,0.223,0.167,0.444,0.252,0.667
			c-0.097,0.005-0.193,0.009-0.288,0.024c-0.04-0.032-0.077-0.069-0.118-0.099C445.026,61.991,445.079,61.794,445.13,61.597z
			 M440.937,46.339c0.005,0.028,0.008,0.057,0.013,0.085c-0.01,0.003-0.02,0.005-0.03,0.008
			C440.925,46.401,440.931,46.37,440.937,46.339z M438.265,90.736c-0.075,0.36-0.158,0.718-0.231,1.079
			c-0.056-0.224-0.118-0.446-0.177-0.668C438.004,91.031,438.14,90.892,438.265,90.736z M398.832,97.393
			c-0.012,0.049-0.023,0.098-0.035,0.146c-0.277-0.029-0.554-0.059-0.832-0.088c-0.24-0.295-0.441-0.602-0.616-0.916
			C397.714,96.991,398.263,97.299,398.832,97.393z M396.755,49.522c0.019-0.019,0.036-0.04,0.055-0.059
			c-0.02,0.157-0.041,0.317-0.063,0.479C396.749,49.803,396.753,49.663,396.755,49.522z M384.302,95.121
			c-0.034,0.293-0.069,0.587-0.102,0.88c-0.018-0.001-0.035-0.003-0.053-0.005C384.201,95.705,384.253,95.413,384.302,95.121z
			 M366.073,44.785c0.013,0.03,0.025,0.059,0.039,0.088c-0.021,0.023-0.043,0.046-0.065,0.069
			C366.056,44.89,366.063,44.837,366.073,44.785z M339.794,92.473c0.052,0.037,0.106,0.067,0.159,0.104
			c-0.093-0.004-0.187-0.006-0.28-0.01C339.714,92.536,339.754,92.505,339.794,92.473z M335.914,71.963
			c0.031,0,0.053,0.012,0.086,0.009c0.09,0.009,0.18,0.019,0.27,0.028c-0.047,0.15-0.096,0.299-0.136,0.452
			c-0.349,0.629-0.695,1.261-1.029,1.899c-0.007,0.001-0.015,0.003-0.021,0.004C335.332,73.55,335.607,72.752,335.914,71.963z
			 M333.087,92.221c0.019,0.051,0.04,0.102,0.058,0.153c-0.062-0.001-0.124-0.002-0.186-0.003
			C333.005,92.323,333.045,92.271,333.087,92.221z M322.779,88.745c-0.021,0.022-0.043,0.042-0.064,0.064
			c-0.004-0.079-0.005-0.158-0.01-0.236C322.726,88.633,322.754,88.687,322.779,88.745z M298.259,75.009
			c-0.027,0.235-0.056,0.469-0.079,0.705c-0.076-0.047-0.156-0.086-0.239-0.121C298.044,75.397,298.153,75.204,298.259,75.009z
			 M292.346,104.11c0.016-0.027,0.036-0.051,0.052-0.078c-0.117,0.284-0.24,0.564-0.351,0.851c-0.01-0.124-0.022-0.245-0.032-0.369
			C292.137,104.405,292.25,104.275,292.346,104.11z M278.018,165.328c-1.799-3.014-0.698-7.884-0.027-11.034
			c1.541-7.235,5.043-13.532,8.877-19.71c0.315-0.028,0.647-0.075,1.014-0.133c0.503-0.08,0.761-0.791,0.486-1.194
			c-0.004-0.003-0.006-0.008-0.01-0.012c6.336-0.266,12.492-0.434,18.577-0.112c-0.629,0.114-1.247,0.275-1.842,0.499
			c-3.304,0.008-6.983,1.203-8.329,4.324c-0.54,1.251-0.591,2.443-0.29,3.514c-0.196,2.18,0.523,4.338,1.888,6.089
			c2.069,2.656,5.934,2.76,8.915,2.116c4.227-0.914,9.199-4.098,8.506-8.993c-0.111-0.783-0.38-1.5-0.759-2.156
			c0.095-0.235,0.194-0.468,0.275-0.708c0.436-1.285-0.27-2.822-1.414-3.474c-0.6-0.341-1.208-0.599-1.82-0.811
			c6.267,0.658,12.491,1.966,18.794,4.393c12.563,4.838,24.901,11.19,38.206,13.723c-0.186,4.995-0.72,9.992-1.309,14.944
			c-0.809,6.805-1.544,14.482-4.344,20.822c-2.114,4.788-11.659,2.443-15.487,1.726c-7.75-1.451-15.295-3.965-22.785-6.384
			c-13.067-4.22-27.147-5.778-39.652-11.608C282.622,169.812,279.676,168.106,278.018,165.328z M472.745,281.469
			c-0.915,12.846-4.911,25.049-7.888,37.56c-1.706,7.172-3.499,14.36-5.992,21.306c-2.735,7.624-6.952,14.716-11.206,21.571
			c-3.555,5.727-7.352,11.302-10.987,16.977c-3.306,5.159-6.667,10.253-11.307,14.322c-9.415,8.255-22.58,5.27-30.189-3.497
			c-6.565-7.563-10.028-17.456-15.765-25.618c-7.19-10.23-13.246-20.605-18.883-31.756c-4.234-8.377-6.524-17.409-10.964-25.705
			c-5.576-10.418-10.018-21.376-15.914-31.639c-1.904-3.314-3.909-6.537-6.268-9.391c23.223-0.915,45.996,3.893,69.223,3.984
			c14.488,0.057,29.045-2.56,43.48-2.021c6.88,0.256,13.671,1.595,20.57,0.941c5.139-0.486,9.93-2.104,14.99-2.5
			C473.489,270.688,473.098,276.52,472.745,281.469z M482.56,258.881c-1.415,0.634-2.596,1.466-3.615,2.426
			c-5.39-0.41-10.435,0.991-15.688,2.13c-7.596,1.647-15.519,0.086-23.171-0.328c-6.854-0.371-13.816,0.759-20.645,1.287
			c-7.601,0.587-15.213,0.958-22.836,1.037c-24.461,0.256-48.379-5.291-72.889-3.649c-2.005-1.766-4.258-3.27-6.871-4.393
			c-3.492-1.5-7.521-2.531-11.483-2.579c0.665-5.394-1.706-12.327-2.538-17.318c-1.313-7.869-2.578-15.758-3.6-23.67
			c-0.845-6.545-1.214-13.14-2.101-19.683c-0.505-3.731-1.078-8.518-2.533-12.652c1.513,0.417,3.004,0.807,4.443,1.188
			c7.494,1.981,15.091,3.422,22.487,5.77c8.524,2.706,17.026,5.527,25.837,7.161c5.77,1.069,15.934,2.74,20.23-2.717
			c4.267-5.418,4.882-14.146,5.835-20.693c1.113-7.646,2.042-15.459,2.093-23.196c0.008-1.286-0.966-2.862-2.336-3.069
			c-14.782-2.227-28.553-9.374-42.477-14.51c-12.786-4.717-27.315-5.497-40.862-3.515c3.208-8.092,3.881-16.936,7.963-24.645
			c4.188,0.027,8.361-0.636,12.542-1.356c8.63-1.488,16.287-2.205,25.014-1.274c19.104,2.038,37.937,3.721,57.142,4.438
			c9.33,0.348,18.658,0.758,27.982,1.231c0.887,0.889,2.57,1.018,3.534,0.191c8.248,0.433,16.494,0.908,24.736,1.443
			c2.895,0.188,5.782,0.362,8.668,0.509c9.049,0.654,18.203,1.479,27.188,1.157c4.539-0.163,9.689-1.1,14.734-1.386
			c0.299,0.036,0.603,0.02,0.896-0.045c3.988-0.162,7.885,0.14,11.327,1.629c0.207,0.09,0.413,0.155,0.616,0.198
			c0.004,0.014,0.009,0.028,0.012,0.042c0.721,3.086,0.488,6.473,0.311,9.605c-0.143,2.516-0.205,5.046-0.346,7.564
			c-11.813-1.188-24.258,0.962-35.652,3.877c-8.755,2.24-20.616,5.448-26.616,12.807c-0.818,1.004-0.966,2.134-0.711,3.146
			c-0.063,0.074-0.128,0.143-0.188,0.235c-0.231,0.352-0.098,0.735,0.178,0.966c-0.015,0.057-0.027,0.104-0.049,0.184
			c-0.153,0.556-0.002,1.048,0.148,1.581c0.42,1.484,0.512,3.192,0.693,4.717c0.512,4.294,0.933,8.596,1.391,12.896
			c0.309,2.906,0.729,5.83,0.896,8.744c0.232,4.089-0.032,8.265,1.871,12.011c4.487,8.828,18.199,5.62,25.609,4.288
			c8.626-1.55,17.293-2.87,25.885-4.614c0.267-0.054,0.539-0.108,0.81-0.163c-0.95,3.607-0.722,7.999-0.788,11.121
			c-0.162,7.705-0.668,15.376-1.37,23.049c-0.654,7.148-1.075,14.609-3.649,21.365c-1.358,3.566-4.255,8.222-3.733,12.321
			C492.063,255.862,487.271,256.77,482.56,258.881z M535.571,357.928c-2.089,0.36-2.26,2.952-1.078,4.244
			c-1.571,1.274-1.771,3.997-2.01,5.958c-0.741,6.065-0.758,12.076-1.836,18.118c-1.531,8.577-3.571,17.04-5.842,25.444
			c-7.021-10.409-14.217-20.565-18.299-32.575c-4.265-12.545-5.534-25.728-5.748-38.91c-0.218-13.362,0.851-27.052,3.759-40.104
			c2.493-11.185,6.492-23.706,13.43-33.223c17.021,4.157,33.188,9.237,48.924,17.192c8.162,4.126,15.611,9.264,23.386,14.031
			c0.794,0.487,1.595,0.963,2.398,1.434c-10.653,5.872-16.074,19.167-20.785,29.719c-5.14,11.513-7.937,23.679-12.087,35.522
			C552.761,359.676,544.967,356.31,535.571,357.928z M739.135,408.323c-2.641-2.306-6.469,1.421-3.881,3.881
			c4.241,4.031,8.442,8.063,11.738,12.932c1.271,1.876,2.068,3.926,2.955,5.924c-3.082-0.562-6.163-1.123-9.223-1.824
			c-3.272-0.75-14.39-2.402-15.17-6.565c-0.568-3.025-5.791-2.344-5.398,0.73c0.031,0.246,0.081,0.484,0.119,0.728
			c-0.008,0.001-0.015,0.002-0.021,0.003c0.013,0.066,0.038,0.127,0.053,0.192c1.41,8.711,6.659,15.521,10.102,23.369
			c-15.256-1.346-29.943-7.571-44.146-12.789c-9.798-3.599-20.152-5.275-29.61-9.842c-9.13-4.408-17.684-10.049-26.436-15.143
			c-17.038-9.917-37.117-15.791-52.103-28.936c-5.031-4.414-10.065-9.646-15.521-14.051c2.977-2.824,4.213-8.384,5.331-11.814
			c2.092-6.417,3.446-13.029,6.326-19.168c5.25-11.196,10.595-28.556,23.424-33.176c0.155-0.056,0.291-0.127,0.424-0.202
			c4.625,2.462,9.364,4.712,14.146,6.85c15.557,6.954,31.74,12.64,46.788,20.689c14.805,7.919,28.068,18.378,41.606,28.219
			c0.954,0.694,2.495,0.387,3.271-0.422c8.45-8.81,22.531-9.819,34.513-9.317c-2.389,3.133-6.093,5.227-9.377,7.357
			c-3.268,2.12-6.306,4.401-8.851,7.232c-2.205-0.145-4.19,1.592-3.306,4.656c0.076,0.263,0.181,0.516,0.302,0.762
			c0.16,0.622,0.57,1.153,1.111,1.53c2.254,2.328,6.385,3.735,8.824,4.755c10.956,4.58,26.83,7.692,33.719,18.267
			c-8.42-1.365-16.874-2.517-25.125-4.756c-3.37-0.915-4.803,4.315-1.438,5.213c1.585,0.423,3.18,0.794,4.777,1.146
			c6.541,2.145,12.403,7.445,16.765,12.503c1.364,1.582,2.9,3.693,4.624,5.628C752.864,413.187,745.007,413.449,739.135,408.323z"/>
		<path d="M960,430.016c-2.56,0-2.56,3.969,0,3.969S962.56,430.016,960,430.016z"/>
		<path d="M938,390.016c-2.56,0-2.56,3.969,0,3.969S940.56,390.016,938,390.016z"/>
		<path d="M442.598,198.618c1.435-4.18,5.55-6.824,7.012-11.046c0.016-0.044,0.022-0.087,0.037-0.131
			c0.523-0.815,0.964-1.667,1.249-2.586c2.075-6.685-3.489-8.272-8.755-7.298c-3.376-1.185-7.202-1.206-11.092-0.614
			c-0.31,0.028-0.617,0.059-0.923,0.09c-8.654,0.89-17.16,2.927-25.151,6.273c-3.511,0.527-6.973,1.447-10.254,2.597
			c-11.157,3.911-22.313,12.104-26.02,23.727c-4.27,5.739-7.633,13.427-3.583,18.716c0.023,0.032,0.045,0.064,0.068,0.096
			c0.024,0.03,0.049,0.061,0.073,0.091c5.642,7.386,17.56,5.229,25.647,4.674c8.162-0.56,16.1,1.48,24.09,3.205
			c0.085,0.021,0.17,0.041,0.255,0.054c4.475,0.961,8.966,1.816,13.524,2.046c7.44,0.375,20.898-1.271,23.099-10.188
			c1.613-6.539-4.568-13.669-7.409-18.99C442.683,205.994,441.315,202.35,442.598,198.618z M366.666,222.229
			c0.01-0.17,0.023-0.341,0.044-0.514c0.038,0.087,0.076,0.174,0.118,0.256C366.77,222.054,366.719,222.143,366.666,222.229z"/>
	</g>
</g>
<g id="Layer_3">
</g>
</svg>
