<?xml version="1.0" encoding="utf-8"?>
<!-- Generator: Adobe Illustrator 16.0.0, SVG Export Plug-In . SVG Version: 6.00 Build 0)  -->
<!DOCTYPE svg PUBLIC "-//W3C//DTD SVG 1.1//EN" "http://www.w3.org/Graphics/SVG/1.1/DTD/svg11.dtd">
<svg version="1.1" xmlns="http://www.w3.org/2000/svg" xmlns:xlink="http://www.w3.org/1999/xlink" x="0px" y="0px" width="1121px"
	 height="301px" viewBox="0 0 1121 301" enable-background="new 0 0 1121 301" xml:space="preserve">
<g id="Layer_1">
	<rect x="0.5" y="0.5" fill="#FFFFFF" stroke="#000000" stroke-miterlimit="10" width="1120" height="300"/>
	<rect x="1" y="8" width="1120" height="284"/>
</g>
<g id="Layer_2">
	<polygon fill="#FFFFFF" points="21,270 21,30 61,30 51,50 121,50 221,50 231,270 191,270 191,80 141,80 151,270 101,270 111,80 
		51,80 61,270 	"/>
	<polygon fill="#FFFFFF" points="251,270 301,270 291,240 281,240 271,110 251,110 	"/>
	<polygon fill="#FFFFFF" points="241,90 281,90 291,40 241,40 	"/>
	<polygon fill="#FFFFFF" points="521,100 561,100 551,120 661,120 671,270 641,270 631,150 551,150 561,270 521,270 	"/>
	<polygon fill="#FFFFFF" points="691,270 741,270 731,230 721,230 711,100 691,100 	"/>
	<polygon fill="#FFFFFF" points="681,80 721,80 731,30 681,30 	"/>
	<polygon fill="#FFFFFF" points="751,90 751,270 931,270 911,240 791,239.5 781,120.5 911,120 931,90 	"/>
	<polygon fill="#FFFFFF" points="941,270 981,270 971,150 1071,150 1071,270 1111,270 1101,120 1071,120 1091,50 1041,50 1041,120 
		971,120 981,20 941,20 	"/>
	<path fill="#FFFFFF" d="M301,100l10,170h180l10-170H301z M451,240H351l-10-110h120L451,240z"/>
</g>
</svg>
