<?xml version="1.0" encoding="utf-8"?>
<!-- Generator: Adobe Illustrator 16.0.0, SVG Export Plug-In . SVG Version: 6.00 Build 0)  -->
<!DOCTYPE svg PUBLIC "-//W3C//DTD SVG 1.1//EN" "http://www.w3.org/Graphics/SVG/1.1/DTD/svg11.dtd">
<svg version="1.1" id="Layer_1" xmlns="http://www.w3.org/2000/svg" xmlns:xlink="http://www.w3.org/1999/xlink" x="0px" y="0px"
	 width="900px" height="300px" viewBox="0 0 900 300" enable-background="new 0 0 900 300" xml:space="preserve">
<g>
	<path fill="#FFFFFF" d="M565.68,83.176c-2.482,0-4.387,0.958-5.701,2.876C558.662,87.97,558,93.629,558,103.028v85.271
		c0,10.604,0.437,17.146,1.302,19.626c0.863,2.482,2.878,3.723,6.036,3.723c3.232,0,5.354-1.428,6.257-4.286
		c0.902-2.856,1.405-9.662,1.405-20.416v-83.917c0-8.497-0.521-13.93-1.461-16.298C570.598,84.36,568.611,83.176,565.68,83.176z"/>
	<path fill="#FFFFFF" d="M0,0v300h900V0H0z M173.108,239h-59.287c-5.428-28-10.218-59.976-14.372-95.761
		C97.554,158.582,93.14,190,86.205,239H27.256L6,56h46.132l5.018,63.769l4.852,61.571C63.753,149.463,68.129,108,75.131,56h49.31
		c0.656,5,2.381,25.47,5.18,60.284l5.245,69.455C137.566,141.534,141.984,98,148.119,56h46.132L173.108,239z M286,239h-82V56h79v37
		h-32v34h30v35h-30v40h35V239z M376,239h-76V56h47v146h29V239z M495,136h-48v-32.114c0-9.228-0.328-14.987-1.343-17.277
		c-1.016-2.288-3.164-3.433-6.622-3.433c-3.911,0-6.398,1.392-7.45,4.173c-1.054,2.783-1.585,8.798-1.585,18.047v84.82
		c0,8.873,0.576,14.663,1.63,17.37c1.052,2.707,3.446,4.061,7.131,4.061c3.534,0,5.679-1.355,6.77-4.069
		c1.089-2.714,1.469-9.084,1.469-19.109V166h48v6.632c0,18.901-1.412,32.307-4.082,40.212c-2.67,7.908-8.611,14.836-17.746,20.786
		c-9.137,5.948-20.418,8.923-33.802,8.923c-13.912,0-25.388-2.521-34.412-7.558c-9.023-5.036-14.814-12.012-17.747-20.923
		c-2.933-8.91-4.212-22.313-4.212-40.211v-53.351c0-13.158,0.259-23.027,1.161-29.608c0.902-6.579,3.494-12.915,7.969-19.005
		c4.473-6.091,10.628-10.884,18.563-14.381c7.932-3.496,17.025-5.245,27.328-5.245c13.986,0,25.516,2.704,34.616,8.11
		c9.098,5.407,15.146,12.148,18.006,20.22c2.857,8.072,4.357,20.63,4.357,37.676V136z M620,163.033
		c0,18.349-0.242,31.34-1.105,38.971c-0.865,7.633-3.476,14.606-8.024,20.923c-4.551,6.316-10.65,11.166-18.395,14.551
		c-7.745,3.383-16.745,5.075-27.047,5.075c-9.775,0-18.541-1.599-26.324-4.794c-7.782-3.195-14.036-7.988-18.774-14.381
		c-4.736-6.391-7.315-13.347-8.218-20.867c-0.902-7.519-1.112-20.678-1.112-39.478V131.79c0-18.347,0.193-31.337,1.059-38.97
		c0.864-7.631,3.452-14.607,8.002-20.923c4.549-6.316,10.637-11.167,18.382-14.55c7.744-3.384,16.737-5.076,27.04-5.076
		c9.775,0,18.54,1.599,26.323,4.793c7.782,3.197,14.036,7.991,18.772,14.381c4.738,6.392,7.361,13.348,8.264,20.867
		c0.902,7.52,1.158,20.68,1.158,39.478V163.033z M785,239h-41.898l-0.056-123.283L726.521,239h-29.439l-17.426-120.463L679.6,239
		H638V56h61.536c1.822,11,3.7,23.972,5.636,38.875l6.743,46.423L722.827,56H785V239z M886,239h-82V56h79v37h-32v34h30v35h-30v40h35
		V239z"/>
</g>
</svg>
