<?xml version="1.0" encoding="utf-8"?>
<!-- Generator: Adobe Illustrator 16.0.0, SVG Export Plug-In . SVG Version: 6.00 Build 0)  -->
<!DOCTYPE svg PUBLIC "-//W3C//DTD SVG 1.1//EN" "http://www.w3.org/Graphics/SVG/1.1/DTD/svg11.dtd">
<svg version="1.1" id="Layer_1" xmlns="http://www.w3.org/2000/svg" xmlns:xlink="http://www.w3.org/1999/xlink" x="0px" y="0px"
	 width="900px" height="300px" viewBox="0 0 900 300" enable-background="new 0 0 900 300" xml:space="preserve">
<rect fill="#FFFFFF" width="900" height="300"/>
<g>
	<path d="M565.68,86.017c-2.482,0-4.387,0.911-5.701,2.733c-1.316,1.821-1.979,7.198-1.979,16.126v81.007
		c0,10.074,0.437,16.288,1.302,18.645c0.863,2.358,2.878,3.537,6.036,3.537c3.232,0,5.354-1.356,6.257-4.072
		c0.902-2.713,1.405-9.179,1.405-19.396v-79.721c0-8.072-0.521-13.234-1.461-15.484C570.598,87.143,568.611,86.017,565.68,86.017z"
		/>
	<path d="M0,7v285h900V7H0z M173.108,234h-59.287c-5.428-27-10.218-56.978-14.372-90.974C97.554,157.602,93.14,188,86.205,234
		H27.256L6,60h46.132l5.018,60.68l4.852,58.442C63.753,148.839,68.129,109,75.131,60h49.31c0.656,5,2.381,24.296,5.18,57.37
		l5.245,65.932c2.7-41.994,7.118-83.302,13.253-123.302h46.132L173.108,234z M286,234h-82V60h79v36h-32v32h30v33h-30v38h35V234z
		 M376,234h-76V60h47v139h29V234z M495,136h-48v-30.308c0-8.767-0.328-14.238-1.343-16.413c-1.016-2.173-3.164-3.262-6.622-3.262
		c-3.911,0-6.398,1.323-7.45,3.965C430.531,92.626,430,98.34,430,107.126v80.58c0,8.43,0.576,13.93,1.63,16.501
		c1.052,2.572,3.446,3.858,7.131,3.858c3.534,0,5.679-1.288,6.77-3.866c1.089-2.578,1.469-8.63,1.469-18.153V165h48v6
		c0,17.957-1.412,30.691-4.082,38.201c-2.67,7.514-8.611,14.095-17.746,19.747c-9.137,5.651-20.418,8.478-33.802,8.478
		c-13.912,0-25.388-2.395-34.412-7.181c-9.023-4.783-14.814-11.411-17.747-19.877c-2.933-8.464-4.212-21.197-4.212-38.2v-50.683
		c0-12.5,0.259-21.876,1.161-28.128c0.902-6.25,3.494-12.269,7.969-18.056c4.473-5.786,10.628-10.34,18.563-13.662
		c7.932-3.321,17.025-4.983,27.328-4.983c13.986,0,25.516,2.569,34.616,7.705c9.098,5.137,15.146,11.541,18.006,19.209
		C493.5,91.24,495,103.17,495,119.364V136z M620,161.882c0,17.431-0.242,29.772-1.105,37.021
		c-0.865,7.252-3.476,13.876-8.024,19.878c-4.551,6-10.65,10.607-18.395,13.822c-7.745,3.214-16.745,4.822-27.047,4.822
		c-9.775,0-18.541-1.52-26.324-4.555c-7.782-3.036-14.036-7.589-18.774-13.662c-4.736-6.071-7.315-12.679-8.218-19.824
		c-0.902-7.143-1.112-19.644-1.112-37.503v-29.681c0-17.43,0.193-29.77,1.059-37.021c0.864-7.25,3.452-13.876,8.002-19.877
		c4.549-6,10.637-10.608,18.382-13.822c7.744-3.215,16.737-4.822,27.04-4.822c9.775,0,18.54,1.519,26.323,4.554
		c7.782,3.037,14.036,7.591,18.772,13.662c4.738,6.072,7.361,12.681,8.264,19.824c0.902,7.144,1.158,19.645,1.158,37.503V161.882z
		 M785,234h-41.898l-0.056-117.12L726.521,234h-29.439l-17.426-114.44L679.6,234H638V60h61.536c1.822,10,3.7,22.873,5.636,37.031
		l6.743,44.051L722.827,60H785V234z M886,234h-82V60h79v36h-32v32h30v33h-30v38h35V234z"/>
</g>
</svg>
