<?xml version="1.0" encoding="utf-8"?>
<!-- Generator: Adobe Illustrator 16.0.0, SVG Export Plug-In . SVG Version: 6.00 Build 0)  -->
<!DOCTYPE svg PUBLIC "-//W3C//DTD SVG 1.1//EN" "http://www.w3.org/Graphics/SVG/1.1/DTD/svg11.dtd">
<svg version="1.1" id="Layer_1" xmlns="http://www.w3.org/2000/svg" xmlns:xlink="http://www.w3.org/1999/xlink" x="0px" y="0px"
	 width="359.071px" height="86.716px" viewBox="0 0 359.071 86.716" enable-background="new 0 0 359.071 86.716"
	 xml:space="preserve">
<path fill-rule="evenodd" clip-rule="evenodd" d="M23.358,70.341c-1.212-1.877-2.293-3.86-4.19-5.186l-0.023-0.003
	c-1.724-2.277-3.816-3.555-7.845-2.284c4.594,3.058,6.439,7.5,9.235,11.253c1.606,2.156,4.376,2.967,7.144,3.073
	c1.822,0.07,3.649,0.014,5.716,0.014c1,3.216,0.825,6.336,0.115,9.397C18.935,87.727,0.879,66.351,0.049,47.651
	C-1.106,21.585,18.243,0.559,43.89,0.011c26.065-0.557,46.745,19.42,46.568,44.984c-0.141,20.226-17.491,42.252-33.291,41.711
	c-2.293-7.003,1.34-14.906-2.933-22.009c7.98-1.708,15.443-3.938,18.373-12.574c2.614-7.708,2.387-15.063-2.683-21.73
	c0.443-4.076,1.184-8.063-1.133-11.883c-4.748-0.549-8.157,2.544-12.443,4.268c-7.209-1.645-14.792-1.886-22.15,0.075
	c-4.137-1.798-7.657-4.606-12.305-4.549c-2.599,3.746-1.942,7.702-1.378,11.646c-9.467,17.208-3.983,29.708,15.4,34.806
	c-0.705,1.842-1.404,3.671-2.135,5.579c-3.558,1.868-7.059,1.143-10.558-0.135L23.358,70.341z"/>
<path fill-rule="evenodd" clip-rule="evenodd" d="M155.314,17.071c0.03,3.719-1.459,7.084-2.094,10.326
	c-1.49,1.116-2.546,0.233-3.642,0.05c-1.971-0.33-3.93-0.78-5.914-0.97c-13.491-1.284-20.04,4.465-20.583,18.052
	c-0.133,3.33-0.177,6.67,0.418,9.972c2.054,11.395,8.891,15.646,20.583,12.558c0.519-3.976,0.563-8.028-0.041-12.038
	c-2.758-1.223-5.545-0.026-8.296-1.048c-0.983-3.495-0.382-7.116-0.347-11.184c7.466,0,14.818,0,22.49,0
	c0,11.012,0,21.94,0.001,32.87c-7.022,6.447-28.25,7.159-37.515,0.582c-5.335-3.788-8.466-8.953-9.882-15.123
	c-2.234-9.735-2.14-19.525,0.583-29.174c3.039-10.766,10.166-16.936,21.341-18.161c5.66-0.62,11.328-0.365,16.915,0.765
	C151.414,14.969,153.586,15.386,155.314,17.071z"/>
<path fill-rule="evenodd" clip-rule="evenodd" d="M264.692,79.19c-4.565,0.763-8.675,0.372-13.318,0.291c0-9.091,0-17.845,0-26.954
	c-6.409,0-12.293,0-18.74,0c0,8.865,0,17.631,0,26.471c-4.614,1.114-8.727,0.529-13.265,0.476c0-21.046,0-41.919,0-63.128
	c4.066-0.792,8.165-0.245,12.893-0.356c0,7.785,0,15.346,0,23.337c6.504,0,12.382,0,18.868,0c0-7.571,0-15.133,0-22.922
	c4.805-0.689,9.022-0.619,13.563-0.095C264.692,37.248,264.692,57.99,264.692,79.19z"/>
<path fill-rule="evenodd" clip-rule="evenodd" d="M317.522,16.318c4.47-0.638,8.577-0.4,13.062-0.152
	c1.171,6.936-0.177,13.92,0.792,20.993c3.974-1.12,7.728-2.42,11.797-2.229c7.31,0.345,12.013,3.523,14.123,10.454
	c2.696,8.853,2.22,17.768-0.748,26.474c-1.768,5.184-5.667,8.007-11.127,8.732c-5.559,0.739-9.899-0.081-16.794-3.371
	c-1.335,0.166-1.202,1.979-3.027,2.29c-2.245,0.169-5.03,0.25-8.077-0.23C317.522,58.276,317.522,37.56,317.522,16.318z
	 M331.051,67.556c1.811,1.385,3.436,1.73,5.097,1.962c5.692,0.794,8.191-0.998,8.851-6.68c0.422-3.636,0.62-7.334-0.256-10.943
	c-1.118-4.608-3.733-6.341-8.432-5.713c-1.818,0.242-3.583,0.704-5.26,2.125C331.051,54.601,331.051,61.047,331.051,67.556z"/>
<path fill-rule="evenodd" clip-rule="evenodd" d="M310.703,79.288c-3.648,0.22-7.281,1.903-10.33-1.999
	c-4.869,2.43-10.212,3.953-16.015,3.502c-8.843-0.687-13.164-4.704-13.411-13.534c-0.282-10.113-0.065-20.241-0.065-30.509
	c4.518-0.891,8.61-0.447,12.535-0.367c1.647,1.52,1.087,3.288,1.102,4.873c0.064,6.828,0.012,13.658,0.051,20.486
	c0.013,2.309-0.201,4.697,1.581,6.879c3.61,2.122,7.124,0.978,11.115-1.07c0-10.104,0-20.363,0-30.854
	c4.727-0.695,8.932-0.602,13.438-0.111C310.703,50.913,310.703,64.975,310.703,79.288z"/>
<path fill-rule="evenodd" clip-rule="evenodd" d="M189.551,48.056c-2.175-1.085-4.328-0.008-6.402-1.248
	c-0.544-2.621-0.417-5.372-0.083-7.942c2.006-1.865,4.775-1.118,7.059-3.218c0-3.482,0-7.409,0-11.52
	c4.577-0.469,8.643-0.405,12.893-0.106c0.992,3.994-0.086,7.877,0.819,11.707c2.951,1.032,6.036-0.117,9.229,0.902
	c0.487,3.407,0.302,6.798,0.109,10.239c-3.105,1.255-6.224-0.019-9.536,1.228c-0.01,6.606-0.97,13.307,0.546,19.38
	c2.781,2.892,5.868,1.719,8.834,2.36c1.084,3.066,0.27,6.156,0.433,9.463c-5.634,2.007-10.991,2.055-16.238-0.094
	c-4.873-1.995-6.841-6.161-7.04-11.147c-0.199-4.987-0.061-9.986-0.133-14.98C190.017,51.448,190.386,49.761,189.551,48.056z"/>
<path fill-rule="evenodd" clip-rule="evenodd" d="M164.861,36.508c4.438-0.612,8.529-0.274,12.991-0.229c0,14.353,0,28.373,0,42.719
	c-4.163,1.112-8.362,0.66-12.991,0.308C164.861,64.9,164.861,50.753,164.861,36.508z"/>
<path fill-rule="evenodd" clip-rule="evenodd" d="M179.084,25.094c-0.089,4.205-3.506,7.472-7.729,7.387
	c-4.267-0.085-7.438-3.416-7.345-7.715c0.091-4.232,3.515-7.56,7.673-7.458C175.8,17.409,179.171,20.955,179.084,25.094z"/>
<path fill-rule="evenodd" clip-rule="evenodd" d="M19.168,65.156c-0.646,0.166-0.205-0.575-0.256,0.078
	c-0.023,0.296,0.252,0.284,0.233-0.081L19.168,65.156z"/>
<path fill-rule="evenodd" clip-rule="evenodd" d="M23.221,70.2c-0.198,0.229-0.395,0.46-0.616,0.718
	c-0.274-0.934,0.398-0.543,0.754-0.576L23.221,70.2z"/>
<path fill-rule="evenodd" clip-rule="evenodd" d="M25.961,72.623c-0.124,0.107-0.254,0.305-0.37,0.296
	c-0.117-0.009-0.218-0.222-0.326-0.345c0.125-0.107,0.254-0.304,0.371-0.297C25.752,72.285,25.854,72.499,25.961,72.623z"/>
<path fill-rule="evenodd" clip-rule="evenodd" d="M32.741,72.967c-0.1-0.053-0.201-0.104-0.301-0.157
	c0.106-0.146,0.212-0.291,0.318-0.438c0.099,0.103,0.198,0.204,0.297,0.307C32.951,72.775,32.846,72.872,32.741,72.967z"/>
<path fill-rule="evenodd" clip-rule="evenodd" fill="none" d="M331.051,67.556c0-6.509,0-12.955,0-19.249
	c1.677-1.421,3.441-1.883,5.26-2.125c4.698-0.628,7.313,1.104,8.432,5.713c0.876,3.609,0.678,7.308,0.256,10.943
	c-0.659,5.682-3.158,7.474-8.851,6.68C334.487,69.287,332.862,68.941,331.051,67.556z"/>
</svg>
