<?xml version="1.0" encoding="utf-8"?>
<!-- Generator: Adobe Illustrator 16.0.0, SVG Export Plug-In . SVG Version: 6.00 Build 0)  -->
<!DOCTYPE svg PUBLIC "-//W3C//DTD SVG 1.1//EN" "http://www.w3.org/Graphics/SVG/1.1/DTD/svg11.dtd">
<svg version="1.1"
	 id="svg3070" xmlns:rdf="http://www.w3.org/1999/02/22-rdf-syntax-ns#" xmlns:dc="http://purl.org/dc/elements/1.1/" xmlns:sodipodi="http://sodipodi.sourceforge.net/DTD/sodipodi-0.dtd" xmlns:svg="http://www.w3.org/2000/svg" xmlns:inkscape="http://www.inkscape.org/namespaces/inkscape" xmlns:cc="http://creativecommons.org/ns#" inkscape:version="0.48.0 r9654" sodipodi:docname="New document 4"
	 xmlns="http://www.w3.org/2000/svg" xmlns:xlink="http://www.w3.org/1999/xlink" x="0px" y="0px" width="291px" height="79.46px"
	 viewBox="0 0 291 79.46" enable-background="new 0 0 291 79.46" xml:space="preserve">
<sodipodi:namedview  fit-margin-left="0" fit-margin-top="0" inkscape:zoom="2.8" showgrid="false" bordercolor="#666666" inkscape:cx="142.93233" inkscape:cy="33.703355" pagecolor="#ffffff" id="base" borderopacity="1.0" inkscape:pageshadow="2" inkscape:document-units="px" inkscape:window-width="1280" inkscape:current-layer="layer1" fit-margin-right="0" inkscape:window-maximized="1" inkscape:window-y="-8" inkscape:window-height="750" inkscape:window-x="-8" fit-margin-bottom="0" inkscape:pageopacity="0.0">
	</sodipodi:namedview>
<g id="layer1" transform="translate(-200.55198,-393.96227)" inkscape:label="Layer 1" inkscape:groupmode="layer">
	<g id="g3019" transform="matrix(1.018827,0,0,-1.018827,170.5996,498.03288)">
		<path id="path14" inkscape:connector-curvature="0" fill="#006699" d="M239.329,95.036c0,2.96,2.461,5.361,5.496,5.361h63.375
			c3.036,0,5.496-2.401,5.496-5.361V30.919c0-2.961-2.461-5.36-5.496-5.36h-63.375c-3.035,0-5.496,2.399-5.496,5.36V95.036z"/>
		<path id="path16" inkscape:connector-curvature="0" d="M31.152,37.709h31.036v10.189H42.383v38.874H31.152V37.709z"/>
		<path id="path18" inkscape:connector-curvature="0" d="M77.9,37.709v33.793H66.667V37.709H77.9z M72.284,76.116
			c3.917,0,6.355,2.595,6.355,5.84c-0.052,2.369-1.392,4.498-3.63,5.369c-2.314,0.901-5.307,0.567-7.183-1.128
			c-1.743-1.574-2.264-4.183-1.447-6.36c0.909-2.421,3.324-3.721,5.831-3.721H72.284L72.284,76.116z"/>
		<path id="path20" inkscape:connector-curvature="0" d="M83.116,37.709h11.232v18.872c0,1.009,0.073,2.02,0.37,2.74
			c1.244,3.093,4.58,4.939,7.835,3.778c2.969-1.058,3.618-4.532,3.618-7.312v-18.08h11.231v19.377
			c0,5.967-2.164,12.357-8.276,14.471c-2.895,1.001-6.334,1.056-9.205-0.037c-2.444-0.931-4.261-2.751-5.649-4.918h0.075v4.9H83.116
			C83.263,68.331,83.116,37.709,83.116,37.709L83.116,37.709z"/>
		<path id="path22" inkscape:connector-curvature="0" d="M133.249,86.772h-11.233V37.709h11.233v10.956l2.807,3.535l8.794-14.491
			h13.818l-14.778,20.977l12.932,14.272h-13.523c0,0-9.237-12.769-10.05-14.283V86.772L133.249,86.772z"/>
		<path id="path24" inkscape:connector-curvature="0" d="M188.706,51.805c1.296,7.624-0.723,16.973-8.353,20.523
			c-7.888,3.669-18.099,0.783-22.669-6.605c-3.912-6.323-4.209-15.546,0.185-21.718c5.324-7.476,15.886-7.913,24.092-6.288
			c1.746,0.345,3.47,0.83,5.118,1.506l-1.479,7.418c-4.067-1.351-8.82-2.02-13.068-1.237c-3.431,0.633-6.799,2.687-7.105,6.474
			l23.278-0.071V51.805z M165.356,59.404c0.398,3.884,3.177,7.274,7.304,7.133c3.896-0.133,5.996-3.509,5.996-7.133H165.356z"/>
		<path id="path26" inkscape:connector-curvature="0" d="M216.8,86.772V69.788h-0.148c-1.924,2.813-5.616,3.833-8.847,3.951
			c-2.96,0.108-5.913-0.573-8.48-2.065c-5.857-3.405-8.429-10.133-8.388-16.663c0-6.52,2.71-13.351,8.749-16.484
			c5.902-3.062,14.524-1.801,18,4.302h0.222l0.444-5.119h9.976c-0.148,2.379-0.297,6.488-0.297,10.525v38.539H216.8L216.8,86.772z
			 M216.8,53.351c0-0.864-0.073-1.73-0.221-2.45c-0.87-4.06-5.202-6.181-9.04-4.867c-3.843,1.314-5.222,5.549-5.222,9.264
			c0,3.639,1.21,7.95,4.881,9.475c3.976,1.652,8.504-0.567,9.456-4.789c0.147-0.65,0.147-1.371,0.147-2.019V53.351L216.8,53.351z"/>
		<path id="path28" inkscape:connector-curvature="0" fill="#FFFFFF" d="M261.873,37.749v33.794H250.64V37.749H261.873z
			 M256.257,76.157c3.917,0,6.355,2.595,6.355,5.838c-0.052,2.37-1.393,4.499-3.63,5.371c-2.314,0.901-5.307,0.567-7.183-1.128
			c-1.742-1.574-2.263-4.183-1.446-6.36c0.909-2.421,3.324-3.72,5.832-3.72H256.257L256.257,76.157z"/>
		<path id="path30" inkscape:connector-curvature="0" fill="#FFFFFF" d="M268.089,37.749h11.232V56.62c0,1.01,0.073,2.02,0.37,2.741
			c1.242,3.093,4.58,4.939,7.835,3.779c2.97-1.059,3.618-4.532,3.618-7.312v-18.08h11.231v19.377c0,5.967-2.163,12.357-8.276,14.471
			c-2.895,1.002-6.334,1.056-9.204-0.037c-2.444-0.931-4.262-2.751-5.65-4.918h0.075v4.901h-11.232
			C268.236,68.372,268.089,37.749,268.089,37.749L268.089,37.749z"/>
	</g>
</g>
</svg>
